<?xml version="1.0" encoding="UTF-8"?>
<svg id="Livello_2" xmlns="http://www.w3.org/2000/svg" version="1.1" viewBox="0 0 506.37 401.39">
  <!-- Generator: Adobe Illustrator 29.8.4, SVG Export Plug-In . SVG Version: 2.1.1 Build 6)  -->
  <defs>
    <style>
      .st0 {
        fill: #e63f11;
      }
    </style>
  </defs>
  <g id="Livello_1-2">
    <path class="st0" d="M160.17,401.39l-88.97-248.35c-27.09-9.86-51.94-31.05-63.58-57.71C-18.45,35.62,25.79-14.11,88.35,3.65c35.71,10.14,67.2,43.7,72.87,80.67h96.55c62.11,2.14,134.35,22.24,163.75,82.36,22.3,45.6,11.4,91.35-38.2,109.75l12.88,35.36,79.2,2.05,30.98,87.55h-184.11l-66.04-185c.98.28,2.14-1.01,2.51-1.01h43.02c1.92,0,9.18-1.81,11.51-2.5,11.99-3.57,13.64-9.22,9.49-20.49-8.22-22.31-34.69-28.66-56.03-30.01-27.23-1.72-56.14,1.26-83.53,0l86.05,239.01h-109.08Z"/>
  </g>
</svg>