<?xml version="1.0" encoding="UTF-8"?>
<svg id="Livello_2" data-name="Livello 2" xmlns="http://www.w3.org/2000/svg" viewBox="0 0 506.37 401.39">
  <defs>
    <style>
      .cls-1 {
        fill: #e63f11;
      }
    </style>
  </defs>
  <g id="Livello_1-2" data-name="Livello 1">
    <g>
      <g>
        <path class="cls-1" d="M375.99,59.34c10.16.71,16.39,11.71,11.42,20.79-4.96,9.05-17.76,9.8-23.75,1.39-6.36-8.93-.35-21.51,10.51-22.18h1.82ZM374.16,62.24c-8.04.59-12.76,9.56-8.82,16.6,4.02,7.18,14.22,7.68,18.93.92,5.43-7.79-.71-18.21-10.11-17.52Z"/>
        <path class="cls-1" d="M382.75,71.51h-3.82c-1.64-3.66-7.23-3.01-8.03.94-1.04,5.15,5.97,7.29,8.17,2.65h3.67c-.21,1.21-.83,2.42-1.62,3.35-3.29,3.92-9.43,3.7-12.43-.45-3.05-4.23-1.21-10.23,3.66-12.01,4.44-1.62,9.26.98,10.38,5.53Z"/>
      </g>
      <path class="cls-1" d="M160.17,401.39l-88.97-248.35c-27.09-9.86-51.94-31.05-63.58-57.71C-18.45,35.62,25.79-14.11,88.35,3.65c35.71,10.14,67.2,43.7,72.87,80.67h96.55c62.11,2.14,134.35,22.24,163.75,82.36,22.3,45.6,11.4,91.35-38.2,109.75l12.88,35.36,79.2,2.05,30.98,87.55h-184.11l-66.04-185c.98.28,2.14-1.01,2.51-1.01h43.02c1.92,0,9.18-1.81,11.51-2.5,11.99-3.57,13.64-9.22,9.49-20.49-8.22-22.31-34.69-28.66-56.03-30.01-27.23-1.72-56.14,1.26-83.53,0l86.05,239.01h-109.06Z"/>
    </g>
  </g>
</svg>