<svg xmlns="http://www.w3.org/2000/svg" xmlns:xlink="http://www.w3.org/1999/xlink" width="1080" zoomAndPan="magnify" viewBox="0 0 810 809.999993" height="1080" preserveAspectRatio="xMidYMid meet" version="1.0"><defs><g/><clipPath id="cbb39200d4"><path d="M 123.929688 243 L 405 243 L 405 567 L 123.929688 567 Z M 123.929688 243 " clip-rule="nonzero"/></clipPath><clipPath id="60b1cd4ef4"><path d="M 123.929688 243 L 405 243 L 405 567 L 123.929688 567 Z M 123.929688 243 " clip-rule="nonzero"/></clipPath></defs><g clip-path="url(#cbb39200d4)"><path fill="#000000" d="M 404.933594 397.992188 L 404.933594 566.988281 C 402.964844 566.988281 400.988281 566.953125 399.019531 566.90625 C 390.972656 566.6875 382.933594 566.125 374.898438 565.222656 C 366.875 564.3125 358.867188 563.09375 350.933594 561.488281 C 343 559.882812 335.121094 557.953125 327.34375 555.6875 C 319.566406 553.421875 311.882812 550.820312 304.34375 547.875 C 289.21875 541.996094 274.710938 534.867188 260.8125 526.492188 C 246.957031 518.132812 233.910156 508.65625 221.675781 498.0625 C 209.445312 487.46875 198.199219 475.914062 187.945312 463.390625 C 177.667969 450.855469 168.539062 437.53125 160.554688 423.425781 C 152.570312 409.316406 145.847656 394.628906 140.394531 379.363281 C 134.929688 364.074219 130.820312 348.425781 128.070312 332.421875 C 127.75 330.425781 127.398438 328.433594 127.105469 326.4375 L 126.265625 320.425781 C 126.015625 318.421875 125.792969 316.414062 125.570312 314.410156 C 125.449219 313.410156 125.351562 312.402344 125.265625 311.394531 L 124.996094 308.386719 C 124.316406 300.34375 123.972656 292.300781 123.960938 284.257812 L 123.960938 243 L 292.960938 243 L 292.960938 284.257812 C 292.949219 290.773438 293.5 297.242188 294.605469 303.664062 C 295.707031 310.085938 297.355469 316.363281 299.546875 322.5 C 301.734375 328.636719 304.433594 334.542969 307.644531 340.214844 C 310.855469 345.882812 314.523438 351.238281 318.660156 356.273438 C 322.820312 361.328125 327.371094 366.003906 332.308594 370.300781 C 337.253906 374.570312 342.523438 378.394531 348.109375 381.78125 C 353.675781 385.136719 359.488281 387.992188 365.546875 390.347656 C 368.554688 391.53125 371.625 392.558594 374.726562 393.460938 C 377.828125 394.363281 380.976562 395.136719 384.148438 395.78125 C 387.316406 396.4375 390.539062 396.90625 393.769531 397.273438 C 397.011719 397.632812 400.269531 397.875 403.558594 397.96875 C 404.019531 397.972656 404.480469 397.988281 404.933594 397.992188 Z M 404.933594 397.992188 " fill-opacity="1" fill-rule="nonzero"/></g><path fill="#ffffff" d="M 137.8125 272.890625 C 137.488281 272.804688 137.296875 272.75 137.238281 272.734375 C 137.160156 272.699219 137.101562 272.644531 137.054688 272.574219 C 136.902344 272.367188 136.839844 272.132812 136.863281 271.875 L 136.863281 257.265625 L 131.6875 257.535156 C 131.421875 257.535156 131.164062 257.582031 130.917969 257.671875 C 130.664062 257.804688 130.542969 258.015625 130.546875 258.296875 C 130.546875 258.632812 130.738281 258.832031 131.132812 258.890625 L 131.5625 258.957031 C 131.777344 258.976562 131.917969 259.089844 131.984375 259.292969 C 132.085938 259.597656 132.132812 259.910156 132.113281 260.234375 L 132.113281 271.875 C 132.136719 272.132812 132.074219 272.363281 131.929688 272.574219 C 131.886719 272.644531 131.828125 272.695312 131.753906 272.734375 C 131.695312 272.753906 131.503906 272.804688 131.179688 272.890625 C 131.007812 272.90625 130.859375 272.980469 130.746094 273.109375 C 130.628906 273.242188 130.574219 273.394531 130.582031 273.570312 C 130.585938 273.808594 130.691406 273.984375 130.902344 274.097656 C 131.152344 274.214844 131.414062 274.261719 131.6875 274.242188 L 137.304688 274.242188 C 137.578125 274.261719 137.835938 274.214844 138.082031 274.097656 C 138.296875 273.988281 138.40625 273.8125 138.410156 273.570312 C 138.417969 273.394531 138.363281 273.242188 138.246094 273.109375 C 138.132812 272.976562 137.984375 272.90625 137.8125 272.890625 Z M 137.8125 272.890625 " fill-opacity="1" fill-rule="nonzero"/><path fill="#ffffff" d="M 161.15625 268.945312 C 161.046875 268.785156 160.894531 268.710938 160.703125 268.722656 C 160.398438 268.734375 160.195312 268.945312 160.101562 269.355469 C 160.066406 269.53125 160.019531 269.703125 159.964844 269.875 C 159.925781 269.96875 159.875 270.050781 159.804688 270.125 C 159.554688 270.355469 159.261719 270.453125 158.925781 270.421875 C 157.933594 270.351562 156.957031 270.210938 155.988281 270 C 155.179688 269.835938 154.363281 269.738281 153.539062 269.71875 C 152.351562 269.652344 151.324219 270.023438 150.449219 270.824219 C 150.089844 271.175781 149.808594 271.582031 149.605469 272.042969 C 149.40625 272.476562 149.304688 272.933594 149.296875 273.410156 C 149.285156 273.605469 149.335938 273.785156 149.449219 273.945312 C 149.566406 274.078125 149.710938 274.140625 149.890625 274.128906 C 150.121094 274.085938 150.316406 273.976562 150.476562 273.804688 C 150.796875 273.488281 151.183594 273.316406 151.632812 273.285156 C 152.246094 273.355469 152.84375 273.488281 153.425781 273.679688 L 155.070312 274.167969 C 155.671875 274.355469 156.28125 274.449219 156.910156 274.457031 C 157.445312 274.445312 157.957031 274.328125 158.445312 274.109375 C 158.953125 273.894531 159.402344 273.589844 159.792969 273.199219 C 160.261719 272.695312 160.628906 272.125 160.886719 271.488281 C 161.167969 270.878906 161.316406 270.238281 161.335938 269.566406 C 161.347656 269.339844 161.285156 269.132812 161.15625 268.945312 Z M 154 260.101562 C 153.796875 259.757812 153.527344 259.480469 153.1875 259.265625 C 152.984375 259.132812 152.871094 259.007812 152.851562 258.890625 C 152.847656 258.796875 152.910156 258.710938 153.054688 258.621094 C 153.234375 258.515625 153.421875 258.445312 153.621094 258.410156 L 153.621094 257.085938 C 152.945312 257.199219 152.292969 257.390625 151.660156 257.660156 C 150.976562 257.976562 150.421875 258.441406 149.988281 259.054688 C 149.574219 259.621094 149.367188 260.257812 149.367188 260.957031 C 149.347656 261.660156 149.585938 262.261719 150.078125 262.761719 C 150.308594 262.992188 150.570312 263.171875 150.867188 263.296875 C 151.164062 263.421875 151.472656 263.488281 151.796875 263.492188 C 152.117188 263.496094 152.429688 263.441406 152.730469 263.320312 C 153.03125 263.203125 153.296875 263.03125 153.53125 262.808594 C 153.894531 262.457031 154.121094 262.03125 154.207031 261.53125 C 154.292969 261.03125 154.226562 260.554688 154 260.101562 Z M 159.484375 258.667969 C 158.917969 258.132812 158.265625 257.738281 157.527344 257.480469 C 156.730469 257.1875 155.902344 257.042969 155.050781 257.046875 L 154.722656 257.046875 L 154.722656 258.410156 C 154.878906 258.488281 155.019531 258.589844 155.152344 258.707031 C 155.269531 258.832031 155.367188 258.972656 155.441406 259.128906 C 155.734375 260 155.851562 260.894531 155.789062 261.8125 C 155.796875 262.441406 155.753906 263.066406 155.65625 263.683594 C 155.585938 264.136719 155.449219 264.566406 155.242188 264.976562 C 155.058594 265.324219 154.828125 265.636719 154.550781 265.917969 C 154.28125 266.179688 153.753906 266.621094 152.976562 267.226562 C 152.371094 267.703125 151.917969 268.082031 151.613281 268.375 C 151.285156 268.695312 150.984375 269.039062 150.710938 269.40625 C 151.148438 269.214844 151.59375 269.046875 152.050781 268.898438 C 152.359375 268.8125 152.679688 268.769531 153.003906 268.769531 L 153.371094 268.558594 C 154.023438 268.1875 154.691406 267.859375 155.382812 267.5625 L 157.007812 266.917969 C 158.132812 266.5 159.066406 265.820312 159.8125 264.882812 C 160.484375 264.003906 160.8125 263.011719 160.800781 261.90625 C 160.820312 261.296875 160.714844 260.710938 160.484375 260.148438 C 160.257812 259.582031 159.921875 259.089844 159.484375 258.667969 Z M 159.484375 258.667969 " fill-opacity="1" fill-rule="nonzero"/><path fill="#ffffff" d="M 173.976562 272.984375 C 173.695312 272.890625 173.550781 272.773438 173.550781 272.640625 C 173.550781 272.542969 173.6875 272.398438 173.953125 272.207031 C 174.246094 271.992188 174.476562 271.726562 174.648438 271.410156 C 174.820312 271.101562 174.910156 270.769531 174.914062 270.414062 C 174.90625 269.90625 174.734375 269.460938 174.398438 269.078125 C 173.941406 268.488281 173.335938 268.199219 172.589844 268.207031 C 171.925781 268.195312 171.367188 268.429688 170.917969 268.914062 C 170.449219 269.402344 170.226562 269.984375 170.246094 270.660156 C 170.238281 271.347656 170.445312 271.964844 170.863281 272.507812 C 171.324219 273.105469 171.898438 273.546875 172.59375 273.832031 C 173.355469 274.152344 174.140625 274.351562 174.960938 274.4375 L 174.960938 273.132812 C 174.625 273.144531 174.296875 273.09375 173.976562 272.984375 Z M 174.773438 259.871094 L 174.203125 259.417969 C 174.054688 259.320312 173.96875 259.1875 173.9375 259.015625 C 173.949219 258.933594 173.980469 258.863281 174.039062 258.804688 C 174.097656 258.71875 174.171875 258.652344 174.269531 258.605469 C 174.488281 258.492188 174.71875 258.414062 174.960938 258.371094 L 174.960938 257.113281 C 174.066406 257.25 173.238281 257.558594 172.46875 258.035156 C 171.957031 258.371094 171.546875 258.804688 171.238281 259.332031 C 170.941406 259.828125 170.792969 260.367188 170.789062 260.945312 C 170.773438 261.578125 170.984375 262.128906 171.417969 262.589844 C 171.828125 263.050781 172.34375 263.269531 172.957031 263.257812 C 173.574219 263.265625 174.097656 263.050781 174.53125 262.609375 C 174.972656 262.1875 175.191406 261.667969 175.183594 261.058594 C 175.230469 260.597656 175.097656 260.203125 174.773438 259.871094 Z M 182.136719 268.0625 C 181.941406 267.570312 181.652344 267.136719 181.269531 266.765625 C 180.984375 266.507812 180.667969 266.296875 180.320312 266.132812 C 179.796875 265.90625 179.257812 265.710938 178.707031 265.554688 C 179.207031 265.40625 179.691406 265.214844 180.15625 264.976562 C 180.519531 264.769531 180.84375 264.511719 181.128906 264.203125 C 181.863281 263.425781 182.21875 262.503906 182.191406 261.433594 C 182.195312 260.824219 182.0625 260.25 181.78125 259.707031 C 181.496094 259.152344 181.105469 258.691406 180.609375 258.316406 C 180.035156 257.894531 179.40625 257.585938 178.71875 257.390625 C 177.96875 257.15625 177.199219 257.042969 176.414062 257.046875 L 176.074219 257.046875 L 176.074219 258.371094 C 176.484375 258.433594 176.832031 258.617188 177.113281 258.921875 C 177.34375 259.277344 177.445312 259.660156 177.414062 260.082031 L 177.414062 262.902344 L 177.421875 263.382812 C 177.421875 264.238281 176.960938 264.707031 176.03125 264.785156 C 175.773438 264.792969 175.53125 264.855469 175.300781 264.976562 C 175.148438 265.101562 175.085938 265.265625 175.109375 265.460938 C 175.101562 265.6875 175.191406 265.863281 175.382812 265.984375 C 175.589844 266.074219 175.8125 266.113281 176.039062 266.109375 C 176.488281 266.09375 176.855469 266.261719 177.140625 266.609375 C 177.246094 266.742188 177.320312 266.894531 177.363281 267.0625 C 177.40625 267.3125 177.421875 267.566406 177.414062 267.820312 L 177.414062 271.394531 C 177.417969 271.625 177.394531 271.851562 177.335938 272.074219 C 177.285156 272.253906 177.195312 272.414062 177.074219 272.554688 C 176.800781 272.851562 176.464844 273.046875 176.074219 273.132812 L 176.074219 274.4375 L 176.613281 274.457031 C 177.488281 274.464844 178.34375 274.332031 179.175781 274.050781 C 179.917969 273.800781 180.574219 273.410156 181.144531 272.871094 C 181.457031 272.566406 181.71875 272.222656 181.929688 271.835938 C 182.136719 271.453125 182.289062 271.046875 182.375 270.621094 C 182.464844 270.191406 182.488281 269.757812 182.449219 269.324219 C 182.40625 268.886719 182.304688 268.46875 182.136719 268.0625 Z M 182.136719 268.0625 " fill-opacity="1" fill-rule="nonzero"/><path fill="#ffffff" d="M 196.027344 261.800781 L 191.371094 268.167969 L 191.1875 268.433594 C 190.921875 268.757812 190.78125 269.132812 190.757812 269.550781 C 190.730469 269.78125 190.796875 269.984375 190.957031 270.152344 C 191.179688 270.285156 191.421875 270.335938 191.679688 270.308594 L 196.027344 270.308594 L 196.027344 269.078125 L 192.121094 269.078125 L 196.027344 263.644531 Z M 203.238281 270.308594 C 203.703125 270.308594 203.933594 270.097656 203.933594 269.675781 C 203.945312 269.59375 203.9375 269.511719 203.910156 269.429688 C 203.878906 269.351562 203.835938 269.28125 203.773438 269.222656 C 203.714844 269.164062 203.644531 269.121094 203.5625 269.097656 C 203.480469 269.070312 203.398438 269.066406 203.316406 269.078125 L 201.761719 269.078125 L 201.761719 257.949219 C 201.773438 257.765625 201.746094 257.59375 201.683594 257.421875 C 201.625 257.316406 201.445312 257.265625 201.148438 257.265625 L 200.070312 257.265625 C 199.835938 257.25 199.609375 257.277344 199.382812 257.34375 C 199.207031 257.445312 199.0625 257.582031 198.957031 257.757812 L 197.007812 260.457031 L 197.007812 271.898438 C 197.027344 272.148438 196.96875 272.378906 196.824219 272.589844 C 196.777344 272.65625 196.714844 272.707031 196.636719 272.734375 C 196.578125 272.753906 196.386719 272.804688 196.070312 272.890625 C 195.898438 272.90625 195.753906 272.980469 195.640625 273.113281 C 195.527344 273.242188 195.472656 273.394531 195.480469 273.570312 C 195.480469 273.8125 195.585938 273.984375 195.800781 274.097656 C 196.050781 274.21875 196.3125 274.265625 196.585938 274.242188 L 202.183594 274.242188 C 202.460938 274.261719 202.726562 274.214844 202.980469 274.097656 C 203.191406 273.984375 203.300781 273.808594 203.304688 273.570312 C 203.308594 273.394531 203.253906 273.242188 203.140625 273.109375 C 203.023438 272.976562 202.878906 272.90625 202.703125 272.890625 C 202.382812 272.804688 202.191406 272.75 202.128906 272.734375 C 202.054688 272.703125 201.996094 272.652344 201.945312 272.589844 C 201.800781 272.378906 201.742188 272.148438 201.761719 271.898438 L 201.761719 270.308594 Z M 203.238281 270.308594 " fill-opacity="1" fill-rule="nonzero"/><path fill="#ffffff" d="M 215.964844 272.488281 C 215.964844 272.398438 216.066406 272.277344 216.257812 272.140625 C 216.523438 271.925781 216.722656 271.664062 216.863281 271.351562 C 217.023438 271.03125 217.105469 270.691406 217.113281 270.335938 C 217.117188 269.730469 216.898438 269.21875 216.453125 268.808594 C 216.035156 268.367188 215.519531 268.148438 214.914062 268.15625 C 214.226562 268.140625 213.644531 268.378906 213.175781 268.878906 C 212.691406 269.386719 212.460938 269.988281 212.484375 270.683594 C 212.484375 271.320312 212.671875 271.898438 213.050781 272.410156 C 213.484375 272.984375 214.027344 273.429688 214.675781 273.746094 C 215.4375 274.140625 216.242188 274.367188 217.097656 274.417969 L 217.097656 273.050781 C 216.808594 273.027344 216.53125 272.957031 216.261719 272.839844 C 216.066406 272.738281 215.964844 272.621094 215.964844 272.488281 Z M 215.835938 263.902344 C 215.371094 264.167969 214.933594 264.476562 214.523438 264.824219 L 214.734375 262.234375 L 213.589844 262.109375 L 213.28125 265.390625 C 213.273438 265.523438 213.265625 265.632812 213.265625 265.734375 C 213.257812 265.925781 213.320312 266.089844 213.457031 266.226562 C 213.613281 266.355469 213.789062 266.414062 213.992188 266.40625 C 214.308594 266.347656 214.597656 266.226562 214.859375 266.035156 C 215.558594 265.628906 216.304688 265.339844 217.097656 265.171875 L 217.097656 263.421875 C 216.65625 263.53125 216.238281 263.691406 215.835938 263.902344 Z M 222.230469 257.507812 C 221.558594 257.601562 220.882812 257.644531 220.207031 257.632812 C 219.144531 257.644531 218.082031 257.582031 217.027344 257.449219 L 214.511719 257.113281 C 214.457031 257.105469 214.300781 257.085938 214.03125 257.046875 L 213.679688 261.167969 C 214.710938 261.332031 215.746094 261.414062 216.789062 261.414062 C 217.746094 261.433594 218.691406 261.351562 219.628906 261.167969 C 220.140625 261.046875 220.621094 260.851562 221.078125 260.582031 C 221.5625 260.296875 222.003906 259.957031 222.402344 259.5625 C 222.738281 259.234375 223.03125 258.863281 223.269531 258.457031 C 223.507812 258.007812 223.699219 257.535156 223.84375 257.046875 C 223.324219 257.261719 222.785156 257.417969 222.230469 257.507812 Z M 221.964844 264.246094 C 221.445312 263.929688 220.886719 263.703125 220.292969 263.566406 C 219.582031 263.421875 218.863281 263.355469 218.140625 263.367188 L 218.140625 265.171875 C 218.574219 265.296875 218.910156 265.550781 219.152344 265.929688 C 219.363281 266.433594 219.449219 266.960938 219.410156 267.503906 L 219.410156 270.683594 C 219.410156 270.972656 219.386719 271.261719 219.34375 271.546875 C 219.316406 271.769531 219.261719 271.984375 219.171875 272.191406 C 219.09375 272.40625 218.96875 272.585938 218.796875 272.734375 C 218.613281 272.878906 218.40625 272.984375 218.179688 273.050781 L 218.179688 274.457031 L 218.566406 274.457031 C 219.238281 274.457031 219.894531 274.355469 220.535156 274.160156 C 221.152344 273.984375 221.726562 273.722656 222.261719 273.371094 C 222.976562 272.878906 223.519531 272.242188 223.890625 271.457031 C 224.285156 270.613281 224.476562 269.726562 224.460938 268.792969 C 224.488281 268.335938 224.449219 267.882812 224.347656 267.4375 C 224.246094 266.988281 224.085938 266.566406 223.863281 266.164062 C 223.644531 265.761719 223.371094 265.394531 223.050781 265.070312 C 222.726562 264.746094 222.367188 264.46875 221.964844 264.246094 Z M 221.964844 264.246094 " fill-opacity="1" fill-rule="nonzero"/><path fill="#ffffff" d="M 238.542969 258.9375 C 238.796875 258.617188 239.121094 258.40625 239.515625 258.304688 L 239.515625 257.046875 C 238.816406 257.058594 238.148438 257.21875 237.519531 257.527344 C 236.816406 257.867188 236.195312 258.316406 235.648438 258.878906 C 234.015625 260.546875 233.199219 262.800781 233.199219 265.648438 C 233.1875 266.910156 233.355469 268.148438 233.699219 269.359375 C 233.980469 270.398438 234.457031 271.339844 235.128906 272.179688 C 235.652344 272.816406 236.273438 273.339844 236.992188 273.742188 C 237.691406 274.128906 238.4375 274.371094 239.234375 274.457031 L 239.234375 273.148438 C 238.929688 273.097656 238.675781 272.960938 238.460938 272.738281 C 238.367188 272.617188 238.308594 272.484375 238.285156 272.332031 C 238.253906 272.058594 238.242188 271.78125 238.25 271.507812 L 238.25 260.109375 C 238.226562 259.6875 238.324219 259.296875 238.542969 258.9375 Z M 245.777344 266.859375 C 245.558594 266.332031 245.246094 265.867188 244.832031 265.472656 C 244.417969 265.078125 243.945312 264.78125 243.40625 264.585938 C 242.90625 264.390625 242.390625 264.292969 241.855469 264.289062 C 240.914062 264.3125 240.042969 264.5625 239.234375 265.042969 L 239.234375 266.46875 C 239.535156 266.273438 239.867188 266.160156 240.226562 266.121094 C 240.492188 266.097656 240.703125 266.199219 240.851562 266.417969 C 241.023438 266.6875 241.101562 266.980469 241.082031 267.300781 L 241.082031 271.957031 C 241.105469 272.246094 241.035156 272.511719 240.871094 272.753906 C 240.683594 272.964844 240.449219 273.097656 240.167969 273.148438 L 240.167969 274.457031 L 240.476562 274.457031 C 241.144531 274.453125 241.792969 274.332031 242.421875 274.097656 C 243.050781 273.875 243.625 273.550781 244.144531 273.132812 C 244.78125 272.589844 245.265625 271.933594 245.59375 271.164062 C 245.953125 270.371094 246.136719 269.539062 246.140625 268.667969 C 246.140625 268.042969 246.019531 267.4375 245.777344 266.859375 Z M 244.625 258.96875 C 244.179688 258.390625 243.621094 257.949219 242.953125 257.644531 C 242.164062 257.257812 241.328125 257.058594 240.449219 257.046875 L 240.449219 258.304688 C 241.195312 258.398438 241.570312 258.632812 241.570312 259.027344 C 241.570312 259.144531 241.542969 259.253906 241.484375 259.359375 C 241.382812 259.523438 241.269531 259.671875 241.136719 259.8125 C 240.789062 260.183594 240.601562 260.621094 240.574219 261.128906 C 240.570312 261.703125 240.789062 262.179688 241.222656 262.558594 C 241.664062 262.972656 242.183594 263.171875 242.789062 263.15625 C 243.113281 263.167969 243.425781 263.109375 243.726562 262.992188 C 244.03125 262.871094 244.296875 262.695312 244.527344 262.46875 C 244.757812 262.238281 244.933594 261.972656 245.054688 261.671875 C 245.175781 261.371094 245.230469 261.058594 245.226562 260.734375 C 245.222656 260.078125 245.023438 259.492188 244.625 258.96875 Z M 244.625 258.96875 " fill-opacity="1" fill-rule="nonzero"/><path fill="#ffffff" d="M 265.84375 257.578125 C 265.761719 257.488281 265.660156 257.4375 265.535156 257.433594 C 265.367188 257.445312 265.230469 257.519531 265.132812 257.660156 L 264.996094 257.835938 C 264.855469 258.03125 264.667969 258.132812 264.429688 258.144531 C 264.007812 258.101562 263.605469 258 263.214844 257.835938 C 262.984375 257.746094 262.53125 257.59375 261.847656 257.390625 C 261.519531 257.273438 261.1875 257.179688 260.847656 257.113281 C 260.582031 257.066406 260.316406 257.046875 260.050781 257.046875 C 259.40625 257.042969 258.796875 257.183594 258.21875 257.46875 C 257.542969 257.828125 256.9375 258.28125 256.402344 258.832031 L 256.589844 257.390625 L 255.667969 257.390625 L 254.878906 262.683594 L 255.839844 262.683594 L 255.839844 262.414062 C 255.808594 261.980469 255.90625 261.582031 256.136719 261.214844 C 256.375 260.925781 256.679688 260.800781 257.050781 260.832031 C 257.816406 260.882812 258.570312 261.007812 259.3125 261.207031 C 260.390625 261.464844 261.050781 261.609375 261.28125 261.648438 C 261.554688 261.699219 261.832031 261.71875 262.109375 261.714844 C 262.761719 261.734375 263.378906 261.597656 263.960938 261.308594 C 264.503906 261.003906 264.925781 260.574219 265.21875 260.023438 C 265.433594 259.65625 265.613281 259.277344 265.757812 258.878906 C 265.882812 258.566406 265.957031 258.242188 265.984375 257.910156 C 265.984375 257.78125 265.9375 257.671875 265.84375 257.578125 Z M 264.078125 262.25 C 263.570312 262.472656 263.039062 262.617188 262.484375 262.683594 C 262.304688 263.042969 262.085938 263.378906 261.832031 263.691406 C 261.53125 264.085938 261.042969 264.652344 260.386719 265.398438 C 259.746094 266.121094 259.285156 266.65625 259.007812 267.015625 C 258.75 267.347656 258.519531 267.695312 258.316406 268.0625 C 257.753906 269.015625 257.457031 270.042969 257.433594 271.144531 C 257.398438 272.03125 257.65625 272.824219 258.199219 273.523438 C 258.433594 273.824219 258.722656 274.058594 259.070312 274.222656 C 259.414062 274.386719 259.777344 274.464844 260.160156 274.457031 C 260.871094 274.460938 261.484375 274.214844 262 273.722656 C 262.628906 273.117188 262.921875 272.378906 262.875 271.507812 C 262.871094 271.074219 262.835938 270.644531 262.761719 270.21875 L 262.523438 268.835938 C 262.472656 268.511719 262.445312 268.1875 262.445312 267.859375 C 262.46875 266.851562 262.636719 265.867188 262.945312 264.910156 C 263.246094 263.988281 263.625 263.101562 264.078125 262.25 Z M 264.078125 262.25 " fill-opacity="1" fill-rule="nonzero"/><path fill="#ffffff" d="M 280.398438 258.84375 C 280.558594 258.574219 280.785156 258.378906 281.074219 258.257812 L 281.074219 257.046875 C 279.960938 257.050781 278.894531 257.285156 277.875 257.746094 C 277.175781 258.101562 276.621094 258.613281 276.214844 259.285156 C 275.8125 259.960938 275.613281 260.691406 275.625 261.480469 C 275.601562 262.042969 275.707031 262.582031 275.9375 263.101562 C 276.164062 263.617188 276.5 264.054688 276.933594 264.414062 C 277.214844 264.644531 277.515625 264.839844 277.84375 264.996094 C 278.277344 265.183594 278.722656 265.34375 279.179688 265.46875 C 278.714844 265.605469 278.257812 265.769531 277.808594 265.957031 C 277.464844 266.113281 277.144531 266.304688 276.839844 266.53125 C 276.292969 266.933594 275.871094 267.445312 275.578125 268.0625 C 275.273438 268.703125 275.125 269.378906 275.136719 270.085938 C 275.113281 270.695312 275.226562 271.277344 275.472656 271.835938 C 275.71875 272.394531 276.078125 272.867188 276.546875 273.257812 C 276.816406 273.480469 277.105469 273.667969 277.421875 273.820312 C 277.792969 273.976562 278.179688 274.097656 278.574219 274.183594 C 279.308594 274.351562 280.058594 274.4375 280.8125 274.4375 L 281.0625 274.457031 L 281.0625 273.160156 C 280.914062 273.125 280.773438 273.0625 280.648438 272.976562 C 280.542969 272.878906 280.464844 272.761719 280.417969 272.628906 C 280.300781 272.351562 280.246094 272.066406 280.253906 271.765625 L 280.253906 267.511719 C 280.234375 267.199219 280.296875 266.90625 280.4375 266.628906 C 280.59375 266.394531 280.808594 266.234375 281.074219 266.148438 L 281.074219 264.835938 C 280.917969 264.78125 280.777344 264.699219 280.65625 264.585938 C 280.546875 264.472656 280.460938 264.347656 280.398438 264.203125 C 280.300781 263.953125 280.25 263.691406 280.253906 263.421875 L 280.253906 259.992188 C 280.226562 259.597656 280.273438 259.21875 280.398438 258.84375 Z M 287.4375 268.0625 C 287.144531 267.445312 286.722656 266.933594 286.171875 266.53125 C 285.875 266.304688 285.554688 266.113281 285.210938 265.957031 C 284.761719 265.769531 284.300781 265.609375 283.835938 265.46875 C 284.292969 265.34375 284.738281 265.183594 285.171875 264.996094 C 285.5 264.839844 285.804688 264.644531 286.085938 264.414062 C 286.519531 264.054688 286.851562 263.613281 287.082031 263.097656 C 287.308594 262.582031 287.414062 262.042969 287.390625 261.480469 C 287.402344 260.691406 287.203125 259.960938 286.792969 259.285156 C 286.390625 258.613281 285.839844 258.097656 285.140625 257.746094 C 284.121094 257.285156 283.050781 257.050781 281.933594 257.046875 L 281.933594 258.257812 C 282.226562 258.378906 282.457031 258.574219 282.617188 258.851562 L 282.753906 259.535156 C 282.792969 259.683594 282.816406 259.835938 282.828125 259.992188 L 282.828125 263.421875 C 282.808594 263.539062 282.777344 263.65625 282.734375 263.769531 C 282.675781 263.972656 282.636719 264.121094 282.605469 264.203125 C 282.554688 264.347656 282.480469 264.476562 282.375 264.585938 C 282.242188 264.695312 282.09375 264.78125 281.933594 264.835938 L 281.933594 266.148438 C 282.082031 266.199219 282.222656 266.273438 282.355469 266.363281 C 282.453125 266.449219 282.53125 266.550781 282.589844 266.667969 C 282.652344 266.816406 282.703125 266.96875 282.75 267.121094 C 282.789062 267.25 282.816406 267.378906 282.828125 267.511719 L 282.828125 271.765625 C 282.835938 272.066406 282.78125 272.351562 282.664062 272.628906 C 282.613281 272.765625 282.535156 272.878906 282.425781 272.976562 C 282.300781 273.066406 282.167969 273.128906 282.019531 273.160156 L 282.019531 274.457031 L 282.1875 274.4375 C 282.949219 274.417969 283.699219 274.335938 284.441406 274.183594 C 284.839844 274.105469 285.222656 273.984375 285.59375 273.824219 C 285.914062 273.679688 286.207031 273.492188 286.46875 273.257812 C 286.9375 272.871094 287.296875 272.394531 287.542969 271.835938 C 287.792969 271.277344 287.902344 270.695312 287.878906 270.085938 C 287.886719 269.378906 287.738281 268.703125 287.4375 268.0625 Z M 287.4375 268.0625 " fill-opacity="1" fill-rule="nonzero"/><path fill="#ffffff" d="M 404.933594 544.511719 L 404.933594 546.070312 C 403.148438 546.066406 401.363281 546.039062 399.578125 545.992188 C 392.125 545.789062 384.675781 545.265625 377.234375 544.425781 C 369.800781 543.589844 362.390625 542.464844 355.042969 540.976562 C 347.695312 539.488281 340.410156 537.695312 333.210938 535.601562 C 326.015625 533.507812 318.902344 531.101562 311.914062 528.371094 C 297.917969 522.925781 284.488281 516.328125 271.625 508.574219 C 258.792969 500.832031 246.707031 492.054688 235.378906 482.242188 C 224.046875 472.429688 213.632812 461.726562 204.132812 450.128906 C 194.613281 438.523438 186.160156 426.1875 178.765625 413.125 C 171.371094 400.0625 165.148438 386.464844 160.097656 372.328125 C 155.039062 358.175781 151.238281 343.6875 148.695312 328.875 C 148.394531 327.027344 148.066406 325.179688 147.792969 323.328125 L 147.019531 317.769531 C 146.792969 315.914062 146.589844 314.054688 146.371094 312.199219 C 146.261719 311.269531 146.175781 310.335938 146.097656 309.40625 L 145.84375 306.613281 C 145.21875 299.167969 144.898438 291.714844 144.882812 284.257812 L 144.882812 243 L 146.445312 243 L 146.445312 284.257812 C 146.457031 291.664062 146.777344 299.074219 147.398438 306.484375 L 147.644531 309.253906 C 147.722656 310.183594 147.816406 311.105469 147.921875 312.035156 C 148.128906 313.878906 148.335938 315.722656 148.566406 317.574219 L 149.335938 323.097656 C 149.605469 324.941406 149.929688 326.773438 150.226562 328.609375 C 152.753906 343.335938 156.535156 357.734375 161.566406 371.804688 C 166.585938 385.855469 172.773438 399.375 180.121094 412.359375 C 187.472656 425.347656 195.878906 437.609375 205.335938 449.148438 C 214.785156 460.660156 225.132812 471.296875 236.382812 481.0625 C 247.660156 490.804688 259.675781 499.53125 272.429688 507.246094 C 285.214844 514.953125 298.566406 521.511719 312.480469 526.921875 C 319.421875 529.632812 326.476562 532.03125 333.648438 534.105469 C 340.804688 536.195312 348.039062 537.972656 355.351562 539.445312 C 362.648438 540.929688 370.019531 542.046875 377.40625 542.882812 C 384.796875 543.707031 392.199219 544.222656 399.621094 544.433594 C 401.390625 544.476562 403.164062 544.503906 404.933594 544.511719 Z M 404.933594 544.511719 " fill-opacity="1" fill-rule="nonzero"/><path fill="#ffffff" d="M 404.933594 523.589844 L 404.933594 525.144531 C 403.332031 525.136719 401.738281 525.109375 400.140625 525.070312 C 393.277344 524.886719 386.410156 524.398438 379.574219 523.636719 C 372.730469 522.859375 365.914062 521.832031 359.160156 520.453125 C 352.402344 519.089844 345.710938 517.445312 339.078125 515.515625 C 332.460938 513.59375 325.914062 511.378906 319.496094 508.871094 C 306.621094 503.859375 294.265625 497.789062 282.433594 490.65625 C 270.621094 483.519531 259.496094 475.441406 249.058594 466.414062 C 238.644531 457.375 229.0625 447.527344 220.3125 436.867188 C 211.558594 426.1875 203.78125 414.839844 196.980469 402.820312 C 190.179688 390.804688 184.453125 378.292969 179.804688 365.289062 C 175.148438 352.273438 171.652344 338.953125 169.316406 325.332031 C 169.039062 323.625 168.742188 321.933594 168.484375 320.226562 L 167.773438 315.109375 L 167.183594 309.988281 C 167.078125 309.128906 166.996094 308.273438 166.917969 307.410156 L 166.695312 304.84375 C 166.117188 297.988281 165.820312 291.128906 165.8125 284.257812 L 165.8125 243 L 167.367188 243 L 167.367188 284.257812 C 167.378906 291.074219 167.671875 297.890625 168.242188 304.710938 L 168.472656 307.265625 C 168.546875 308.121094 168.625 308.964844 168.730469 309.820312 L 169.324219 314.914062 L 170.027344 319.996094 C 170.277344 321.6875 170.574219 323.375 170.851562 325.066406 C 173.171875 338.601562 176.644531 351.832031 181.269531 364.761719 C 185.886719 377.683594 191.578125 390.113281 198.335938 402.054688 C 205.09375 413.996094 212.820312 425.273438 221.519531 435.886719 C 230.203125 446.488281 239.726562 456.277344 250.085938 465.25 C 260.449219 474.222656 271.5 482.246094 283.234375 489.324219 C 294.992188 496.410156 307.265625 502.445312 320.054688 507.421875 C 326.4375 509.910156 332.921875 512.109375 339.515625 514.019531 C 346.09375 515.9375 352.742188 517.574219 359.460938 518.933594 C 366.179688 520.296875 372.949219 521.324219 379.746094 522.085938 C 386.539062 522.851562 393.363281 523.332031 400.1875 523.515625 C 401.765625 523.554688 403.351562 523.582031 404.933594 523.589844 Z M 404.933594 523.589844 " fill-opacity="1" fill-rule="nonzero"/><path fill="#ffffff" d="M 404.933594 502.660156 L 404.933594 504.222656 C 403.523438 504.214844 402.113281 504.195312 400.707031 504.164062 C 394.429688 503.992188 388.152344 503.535156 381.90625 502.839844 C 375.65625 502.140625 369.4375 501.199219 363.269531 499.941406 C 357.105469 498.695312 350.996094 497.191406 344.941406 495.429688 C 338.902344 493.671875 332.945312 491.648438 327.074219 489.363281 C 315.320312 484.792969 304.042969 479.253906 293.238281 472.742188 C 282.449219 466.234375 272.292969 458.855469 262.765625 450.605469 C 253.238281 442.359375 244.484375 433.359375 236.5 423.609375 C 228.507812 413.859375 221.402344 403.496094 215.191406 392.523438 C 208.980469 381.546875 203.753906 370.125 199.511719 358.25 C 195.257812 346.371094 192.066406 334.214844 189.933594 321.78125 C 189.683594 320.226562 189.40625 318.679688 189.183594 317.125 L 188.523438 312.457031 L 187.984375 307.773438 C 187.894531 306.988281 187.820312 306.207031 187.753906 305.421875 L 187.542969 303.078125 C 187.015625 296.816406 186.746094 290.542969 186.734375 284.257812 L 186.734375 243 L 188.289062 243 L 188.289062 284.257812 C 188.300781 290.488281 188.570312 296.730469 189.089844 302.945312 L 189.300781 305.277344 C 189.367188 306.054688 189.441406 306.832031 189.53125 307.609375 L 190.074219 312.257812 L 190.71875 316.894531 C 190.949219 318.433594 191.21875 319.976562 191.46875 321.515625 C 193.589844 333.863281 196.753906 345.933594 200.972656 357.730469 C 205.1875 369.519531 210.378906 380.859375 216.546875 391.757812 C 222.714844 402.652344 229.765625 412.941406 237.703125 422.621094 C 245.632812 432.304688 254.324219 441.238281 263.78125 449.429688 C 273.242188 457.621094 283.328125 464.945312 294.042969 471.40625 C 304.769531 477.871094 315.96875 483.375 327.640625 487.917969 C 333.457031 490.1875 339.371094 492.195312 345.382812 493.941406 C 351.382812 495.6875 357.445312 497.175781 363.578125 498.414062 C 369.695312 499.65625 375.878906 500.59375 382.082031 501.292969 C 388.285156 501.988281 394.515625 502.4375 400.746094 502.601562 C 402.140625 502.632812 403.539062 502.660156 404.933594 502.660156 Z M 404.933594 502.660156 " fill-opacity="1" fill-rule="nonzero"/><path fill="#ffffff" d="M 404.933594 481.738281 L 404.933594 483.292969 C 403.707031 483.285156 402.492188 483.265625 401.265625 483.242188 C 395.574219 483.089844 389.898438 482.679688 384.242188 482.046875 C 378.585938 481.417969 372.957031 480.558594 367.382812 479.421875 C 361.808594 478.300781 356.28125 476.941406 350.808594 475.34375 C 345.347656 473.757812 339.949219 471.933594 334.648438 469.867188 C 324.019531 465.726562 313.816406 460.710938 304.046875 454.824219 C 294.277344 448.933594 285.082031 442.253906 276.460938 434.785156 C 267.839844 427.320312 259.914062 419.171875 252.6875 410.347656 C 245.453125 401.527344 239.027344 392.152344 233.40625 382.222656 C 227.785156 372.292969 223.054688 361.960938 219.214844 351.21875 C 215.371094 340.476562 212.488281 329.480469 210.558594 318.238281 C 210.328125 316.828125 210.078125 315.425781 209.875 314.023438 L 209.28125 309.796875 L 208.796875 305.5625 C 208.703125 304.851562 208.644531 304.136719 208.578125 303.433594 L 208.394531 301.308594 C 207.917969 295.636719 207.671875 289.953125 207.65625 284.257812 L 207.65625 243 L 209.214844 243 L 209.214844 284.257812 C 209.230469 289.90625 209.472656 295.546875 209.941406 301.175781 L 210.132812 303.28125 C 210.191406 303.988281 210.257812 304.691406 210.34375 305.390625 L 210.828125 309.597656 L 211.417969 313.792969 C 211.613281 315.1875 211.863281 316.578125 212.085938 317.96875 C 214.003906 329.125 216.871094 340.03125 220.683594 350.691406 C 224.492188 361.347656 229.183594 371.605469 234.757812 381.453125 C 240.332031 391.304688 246.707031 400.605469 253.886719 409.359375 C 261.070312 418.105469 268.933594 426.1875 277.480469 433.605469 C 286.042969 441.007812 295.164062 447.636719 304.847656 453.496094 C 314.542969 459.335938 324.664062 464.308594 335.214844 468.410156 C 340.476562 470.472656 345.820312 472.285156 351.25 473.851562 C 356.667969 475.429688 362.148438 476.78125 367.6875 477.898438 C 373.21875 479.027344 378.808594 479.867188 384.414062 480.5 C 390.03125 481.125 395.660156 481.535156 401.3125 481.6875 C 402.515625 481.714844 403.722656 481.734375 404.933594 481.738281 Z M 404.933594 481.738281 " fill-opacity="1" fill-rule="nonzero"/><path fill="#ffffff" d="M 404.933594 460.816406 L 404.933594 462.371094 C 403.898438 462.363281 402.867188 462.34375 401.832031 462.324219 C 396.726562 462.1875 391.644531 461.820312 386.582031 461.257812 C 381.523438 460.6875 376.476562 459.929688 371.492188 458.90625 C 366.507812 457.898438 361.570312 456.683594 356.675781 455.265625 C 351.789062 453.84375 346.972656 452.207031 342.226562 450.359375 C 332.722656 446.660156 323.597656 442.175781 314.859375 436.914062 C 306.121094 431.625 297.886719 425.644531 290.15625 418.96875 C 282.449219 412.269531 275.351562 404.972656 268.867188 397.085938 C 262.394531 389.191406 256.644531 380.804688 251.617188 371.917969 C 246.585938 363.035156 242.355469 353.789062 238.917969 344.175781 C 235.480469 334.570312 232.902344 324.742188 231.179688 314.6875 C 230.976562 313.429688 230.75 312.179688 230.566406 310.921875 L 230.039062 307.140625 L 229.605469 303.339844 C 229.519531 302.710938 229.460938 302.078125 229.40625 301.445312 L 229.242188 299.542969 C 228.816406 294.464844 228.59375 289.371094 228.585938 284.257812 L 228.585938 243 L 230.136719 243 L 230.136719 284.257812 C 230.152344 289.320312 230.367188 294.371094 230.789062 299.410156 L 230.960938 301.292969 C 231.015625 301.925781 231.066406 302.550781 231.144531 303.175781 L 231.582031 306.9375 L 232.105469 310.691406 C 232.285156 311.9375 232.515625 313.179688 232.714844 314.425781 C 234.421875 324.390625 236.980469 334.136719 240.386719 343.65625 C 243.792969 353.183594 247.988281 362.347656 252.972656 371.152344 C 257.957031 379.957031 263.65625 388.273438 270.070312 396.097656 C 276.484375 403.933594 283.519531 411.164062 291.175781 417.792969 C 298.828125 424.421875 306.992188 430.347656 315.664062 435.574219 C 324.324219 440.796875 333.367188 445.242188 342.792969 448.90625 C 347.488281 450.75 352.277344 452.363281 357.117188 453.769531 C 361.957031 455.179688 366.855469 456.386719 371.796875 457.378906 C 376.742188 458.394531 381.738281 459.136719 386.757812 459.710938 C 391.769531 460.269531 396.808594 460.625 401.871094 460.769531 C 402.890625 460.792969 403.914062 460.8125 404.933594 460.816406 Z M 404.933594 460.816406 " fill-opacity="1" fill-rule="nonzero"/><path fill="#ffffff" d="M 404.933594 439.871094 L 404.933594 441.421875 C 404.085938 441.421875 403.242188 441.410156 402.390625 441.390625 C 397.878906 441.273438 393.390625 440.941406 388.917969 440.441406 C 384.445312 439.941406 380.007812 439.277344 375.609375 438.375 C 371.210938 437.484375 366.855469 436.414062 362.550781 435.160156 C 358.242188 433.90625 354 432.464844 349.8125 430.835938 C 341.425781 427.570312 333.378906 423.617188 325.671875 418.972656 C 317.949219 414.316406 310.675781 409.039062 303.859375 403.132812 C 297.039062 397.230469 290.773438 390.789062 285.058594 383.808594 C 279.351562 376.84375 274.28125 369.445312 269.84375 361.609375 C 265.40625 353.773438 261.671875 345.617188 258.640625 337.136719 C 255.613281 328.667969 253.339844 320.003906 251.816406 311.140625 C 251.644531 310.027344 251.433594 308.925781 251.277344 307.8125 L 250.808594 304.472656 L 250.429688 301.128906 C 250.347656 300.570312 250.300781 300.007812 250.257812 299.449219 L 250.105469 297.769531 C 249.730469 293.285156 249.535156 288.78125 249.527344 284.257812 L 249.527344 243 L 251.078125 243 L 251.078125 284.257812 C 251.09375 288.734375 251.285156 293.195312 251.660156 297.640625 L 251.804688 299.304688 C 251.851562 299.859375 251.902344 300.410156 251.96875 300.964844 L 252.351562 304.285156 L 252.816406 307.582031 C 252.976562 308.683594 253.179688 309.777344 253.351562 310.875 C 254.851562 319.652344 257.105469 328.230469 260.109375 336.609375 C 263.109375 345.003906 266.808594 353.082031 271.199219 360.839844 C 275.589844 368.597656 280.613281 375.925781 286.265625 382.820312 C 291.921875 389.730469 298.125 396.113281 304.875 401.957031 C 311.625 407.804688 318.828125 413.035156 326.476562 417.644531 C 334.109375 422.242188 342.078125 426.15625 350.378906 429.390625 C 354.507812 431.003906 358.722656 432.429688 362.984375 433.667969 C 367.246094 434.902344 371.558594 435.972656 375.917969 436.847656 C 380.269531 437.742188 384.671875 438.394531 389.097656 438.894531 C 393.519531 439.394531 397.964844 439.710938 402.429688 439.835938 C 403.265625 439.855469 404.097656 439.871094 404.933594 439.871094 Z M 404.933594 439.871094 " fill-opacity="1" fill-rule="nonzero"/><path fill="#ffffff" d="M 404.933594 418.933594 L 404.933594 420.488281 C 404.273438 420.480469 403.609375 420.46875 402.953125 420.457031 C 399.03125 420.351562 395.132812 420.0625 391.253906 419.632812 C 387.382812 419.191406 383.53125 418.625 379.726562 417.839844 C 375.917969 417.070312 372.148438 416.140625 368.417969 415.054688 C 364.695312 413.976562 361.015625 412.738281 357.402344 411.320312 C 350.136719 408.492188 343.167969 405.066406 336.492188 401.042969 C 322.988281 392.90625 311.242188 382.734375 301.261719 370.53125 C 298.789062 367.519531 296.449219 364.410156 294.246094 361.195312 C 292.042969 357.984375 289.980469 354.683594 288.0625 351.292969 C 286.140625 347.902344 284.371094 344.433594 282.75 340.890625 C 281.132812 337.347656 279.667969 333.742188 278.355469 330.074219 C 277.046875 326.40625 275.898438 322.6875 274.910156 318.917969 C 273.917969 315.148438 273.09375 311.347656 272.433594 307.507812 C 271.773438 303.667969 271.277344 299.804688 270.949219 295.925781 C 270.621094 292.042969 270.460938 288.152344 270.46875 284.257812 L 270.46875 243 L 272.019531 243 L 272.019531 284.257812 C 272.015625 288.109375 272.171875 291.953125 272.496094 295.792969 C 272.820312 299.628906 273.308594 303.445312 273.960938 307.242188 C 274.617188 311.035156 275.429688 314.796875 276.410156 318.523438 C 277.386719 322.246094 278.523438 325.925781 279.816406 329.550781 C 281.113281 333.179688 282.5625 336.742188 284.164062 340.246094 C 285.765625 343.75 287.515625 347.175781 289.414062 350.527344 C 291.3125 353.878906 293.351562 357.140625 295.53125 360.316406 C 297.707031 363.492188 300.019531 366.566406 302.464844 369.542969 C 307.378906 375.527344 312.757812 381.054688 318.597656 386.132812 C 324.453125 391.179688 330.683594 395.707031 337.296875 399.710938 C 343.894531 403.6875 350.78125 407.074219 357.960938 409.867188 C 361.535156 411.269531 365.167969 412.5 368.859375 413.5625 C 372.539062 414.632812 376.265625 415.550781 380.035156 416.3125 C 383.792969 417.089844 387.601562 417.65625 391.433594 418.085938 C 395.265625 418.511719 399.117188 418.796875 402.996094 418.902344 C 403.644531 418.914062 404.289062 418.929688 404.933594 418.933594 Z M 404.933594 418.933594 " fill-opacity="1" fill-rule="nonzero"/><path fill="#ffffff" d="M 404.933594 397.992188 L 404.933594 399.546875 C 404.460938 399.539062 403.992188 399.535156 403.519531 399.519531 C 400.1875 399.429688 396.878906 399.183594 393.59375 398.824219 C 390.320312 398.449219 387.0625 397.972656 383.839844 397.308594 C 380.621094 396.644531 377.441406 395.871094 374.292969 394.957031 C 371.144531 394.042969 368.035156 393 364.980469 391.796875 C 358.839844 389.40625 352.949219 386.511719 347.304688 383.117188 C 335.871094 376.214844 325.921875 367.597656 317.460938 357.261719 C 313.269531 352.15625 309.546875 346.730469 306.292969 340.980469 C 303.035156 335.234375 300.300781 329.25 298.078125 323.027344 C 295.859375 316.804688 294.191406 310.441406 293.070312 303.929688 C 291.949219 297.421875 291.394531 290.863281 291.410156 284.257812 L 291.410156 243 L 292.960938 243 L 292.960938 284.257812 C 292.949219 290.773438 293.5 297.242188 294.605469 303.664062 C 295.707031 310.085938 297.355469 316.363281 299.546875 322.5 C 301.734375 328.636719 304.433594 334.542969 307.644531 340.214844 C 310.855469 345.882812 314.523438 351.238281 318.660156 356.273438 C 322.820312 361.328125 327.371094 366.003906 332.308594 370.300781 C 337.253906 374.570312 342.523438 378.394531 348.109375 381.78125 C 353.675781 385.136719 359.488281 387.992188 365.546875 390.347656 C 368.554688 391.53125 371.625 392.558594 374.726562 393.460938 C 377.828125 394.363281 380.976562 395.136719 384.148438 395.78125 C 387.316406 396.4375 390.539062 396.90625 393.769531 397.273438 C 397.011719 397.632812 400.269531 397.875 403.558594 397.96875 C 404.019531 397.972656 404.480469 397.988281 404.933594 397.992188 Z M 404.933594 397.992188 " fill-opacity="1" fill-rule="nonzero"/><g clip-path="url(#60b1cd4ef4)"><path fill="#ffffff" d="M 404.933594 565.433594 L 404.933594 566.988281 C 402.964844 566.988281 400.988281 566.953125 399.019531 566.90625 C 390.972656 566.6875 382.933594 566.125 374.898438 565.222656 C 366.875 564.3125 358.867188 563.09375 350.933594 561.488281 C 343 559.882812 335.121094 557.953125 327.34375 555.6875 C 319.566406 553.421875 311.882812 550.820312 304.34375 547.875 C 289.21875 541.996094 274.710938 534.867188 260.8125 526.492188 C 246.957031 518.132812 233.910156 508.65625 221.675781 498.0625 C 209.445312 487.46875 198.199219 475.914062 187.945312 463.390625 C 177.667969 450.855469 168.539062 437.53125 160.554688 423.425781 C 152.570312 409.316406 145.847656 394.628906 140.394531 379.363281 C 134.929688 364.074219 130.820312 348.425781 128.070312 332.421875 C 127.75 330.425781 127.398438 328.433594 127.105469 326.4375 L 126.265625 320.425781 C 126.015625 318.421875 125.792969 316.414062 125.570312 314.410156 C 125.449219 313.410156 125.351562 312.402344 125.265625 311.394531 L 124.996094 308.386719 C 124.316406 300.34375 123.972656 292.300781 123.960938 284.257812 L 123.960938 243 L 125.515625 243 L 125.515625 284.257812 C 125.53125 292.253906 125.875 300.25 126.550781 308.253906 L 126.8125 311.25 C 126.898438 312.25 127 313.246094 127.117188 314.246094 C 127.339844 316.242188 127.566406 318.238281 127.808594 320.234375 L 128.644531 326.199219 C 128.933594 328.1875 129.285156 330.171875 129.605469 332.160156 C 132.34375 348.074219 136.425781 363.636719 141.855469 378.84375 C 147.28125 394.023438 153.96875 408.628906 161.90625 422.660156 C 169.847656 436.6875 178.929688 449.9375 189.152344 462.40625 C 199.347656 474.855469 210.53125 486.351562 222.699219 496.886719 C 234.867188 507.421875 247.839844 516.84375 261.621094 525.15625 C 275.441406 533.488281 289.867188 540.578125 304.902344 546.425781 C 312.410156 549.359375 320.035156 551.945312 327.78125 554.191406 C 335.515625 556.449219 343.339844 558.375 351.242188 559.960938 C 359.125 561.558594 367.085938 562.773438 375.070312 563.675781 C 383.050781 564.578125 391.066406 565.136719 399.058594 565.355469 C 401.023438 565.398438 402.972656 565.433594 404.933594 565.433594 Z M 404.933594 565.433594 " fill-opacity="1" fill-rule="nonzero"/></g><g fill="#000000" fill-opacity="1"><g transform="translate(414.501353, 469.990931)"><g><path d="M 5.125 -70.390625 L 30.28125 -70.390625 C 37.050781 -70.390625 42.566406 -68.582031 46.828125 -64.96875 C 51.097656 -61.351562 53.234375 -56.191406 53.234375 -49.484375 C 53.234375 -44.304688 51.9375 -39.96875 49.34375 -36.46875 C 46.757812 -32.96875 43.25 -30.507812 38.8125 -29.09375 L 63.046875 0 L 42.65625 0 L 21.15625 -27.8125 L 21.15625 0 L 5.125 0 Z M 21.15625 -39.15625 L 23.03125 -39.15625 C 24.507812 -39.15625 25.757812 -39.179688 26.78125 -39.234375 C 27.8125 -39.296875 28.976562 -39.5 30.28125 -39.84375 C 31.59375 -40.1875 32.644531 -40.671875 33.4375 -41.296875 C 34.238281 -41.921875 34.921875 -42.828125 35.484375 -44.015625 C 36.054688 -45.210938 36.34375 -46.664062 36.34375 -48.375 C 36.34375 -50.082031 36.054688 -51.53125 35.484375 -52.71875 C 34.921875 -53.914062 34.238281 -54.828125 33.4375 -55.453125 C 32.644531 -56.078125 31.59375 -56.5625 30.28125 -56.90625 C 28.976562 -57.25 27.8125 -57.445312 26.78125 -57.5 C 25.757812 -57.5625 24.507812 -57.59375 23.03125 -57.59375 L 21.15625 -57.59375 Z M 21.15625 -39.15625 "/></g></g></g><g fill="#000000" fill-opacity="1"><g transform="translate(465.177145, 489.427709)"><g><path d="M 31.046875 -71.65625 C 34.859375 -71.65625 38.582031 -71.097656 42.21875 -69.984375 C 45.863281 -68.878906 48.566406 -67.789062 50.328125 -66.71875 L 52.890625 -65.015625 L 46.40625 -52.21875 C 45.894531 -52.550781 45.179688 -52.988281 44.265625 -53.53125 C 43.359375 -54.070312 41.65625 -54.796875 39.15625 -55.703125 C 36.65625 -56.617188 34.320312 -57.078125 32.15625 -57.078125 C 29.488281 -57.078125 27.425781 -56.503906 25.96875 -55.359375 C 24.519531 -54.222656 23.796875 -52.691406 23.796875 -50.765625 C 23.796875 -49.796875 24.132812 -48.898438 24.8125 -48.078125 C 25.5 -47.253906 26.664062 -46.367188 28.3125 -45.421875 C 29.96875 -44.484375 31.421875 -43.726562 32.671875 -43.15625 C 33.921875 -42.59375 35.851562 -41.742188 38.46875 -40.609375 C 43.019531 -38.671875 46.898438 -36.039062 50.109375 -32.71875 C 53.328125 -29.394531 54.9375 -25.625 54.9375 -21.40625 C 54.9375 -17.375 54.210938 -13.847656 52.765625 -10.828125 C 51.316406 -7.816406 49.328125 -5.457031 46.796875 -3.75 C 44.265625 -2.039062 41.460938 -0.773438 38.390625 0.046875 C 35.316406 0.867188 31.988281 1.28125 28.40625 1.28125 C 25.332031 1.28125 22.316406 0.96875 19.359375 0.34375 C 16.410156 -0.28125 13.9375 -1.0625 11.9375 -2 C 9.945312 -2.9375 8.15625 -3.859375 6.5625 -4.765625 C 4.976562 -5.679688 3.816406 -6.453125 3.078125 -7.078125 L 1.96875 -8.015625 L 9.984375 -21.5 C 10.660156 -20.925781 11.597656 -20.195312 12.796875 -19.3125 C 13.992188 -18.4375 16.113281 -17.257812 19.15625 -15.78125 C 22.195312 -14.300781 24.882812 -13.5625 27.21875 -13.5625 C 33.976562 -13.5625 37.359375 -15.863281 37.359375 -20.46875 C 37.359375 -21.4375 37.117188 -22.332031 36.640625 -23.15625 C 36.160156 -23.988281 35.304688 -24.816406 34.078125 -25.640625 C 32.859375 -26.460938 31.78125 -27.113281 30.84375 -27.59375 C 29.90625 -28.082031 28.367188 -28.820312 26.234375 -29.8125 C 24.097656 -30.8125 22.519531 -31.566406 21.5 -32.078125 C 17.226562 -34.179688 13.925781 -36.8125 11.59375 -39.96875 C 9.269531 -43.125 8.109375 -46.519531 8.109375 -50.15625 C 8.109375 -56.476562 10.4375 -61.640625 15.09375 -65.640625 C 19.757812 -69.648438 25.078125 -71.65625 31.046875 -71.65625 Z M 31.046875 -71.65625 "/></g></g></g><g fill="#000000" fill-opacity="1"><g transform="translate(416.443175, 533.597348)"><g><path d="M 3.140625 0.03125 L 3.140625 -24.421875 L 11.046875 -24.421875 C 12.191406 -24.421875 13.269531 -24.265625 14.28125 -23.953125 C 15.300781 -23.640625 16.203125 -23.171875 16.984375 -22.546875 C 17.765625 -21.929688 18.378906 -21.175781 18.828125 -20.28125 C 19.273438 -19.394531 19.5 -18.378906 19.5 -17.234375 C 19.5 -16.210938 19.296875 -15.28125 18.890625 -14.4375 C 18.484375 -13.59375 17.914062 -12.867188 17.1875 -12.265625 C 16.46875 -11.660156 15.648438 -11.195312 14.734375 -10.875 L 21.53125 0.03125 L 16.5 0.03125 L 10.484375 -10.4375 L 7.53125 -10.4375 L 7.53125 0.03125 Z M 7.578125 -14.015625 L 11.4375 -14.015625 C 12.601562 -14.078125 13.515625 -14.390625 14.171875 -14.953125 C 14.828125 -15.515625 15.15625 -16.253906 15.15625 -17.171875 C 15.15625 -18.179688 14.789062 -18.988281 14.0625 -19.59375 C 13.332031 -20.195312 12.335938 -20.5 11.078125 -20.5 L 7.578125 -20.5 Z M 7.578125 -14.015625 "/></g></g></g><g fill="#000000" fill-opacity="1"><g transform="translate(438.368299, 533.597348)"><g><path d="M 8.28125 0.34375 C 6.832031 0.34375 5.640625 -0.00390625 4.703125 -0.703125 C 3.773438 -1.398438 3.085938 -2.382812 2.640625 -3.65625 C 2.203125 -4.9375 1.984375 -6.441406 1.984375 -8.171875 L 1.984375 -17.265625 L 6.265625 -17.265625 L 6.265625 -8.03125 C 6.265625 -7.09375 6.347656 -6.28125 6.515625 -5.59375 C 6.679688 -4.914062 6.988281 -4.390625 7.4375 -4.015625 C 7.882812 -3.648438 8.535156 -3.46875 9.390625 -3.46875 C 9.878906 -3.46875 10.359375 -3.546875 10.828125 -3.703125 C 11.304688 -3.867188 11.738281 -4.164062 12.125 -4.59375 C 12.507812 -5.03125 12.8125 -5.644531 13.03125 -6.4375 C 13.257812 -7.226562 13.375 -8.242188 13.375 -9.484375 L 13.375 -17.265625 L 17.671875 -17.265625 L 17.671875 0 L 13.375 0 L 13.375 -2.015625 C 12.757812 -1.210938 12.007812 -0.617188 11.125 -0.234375 C 10.25 0.148438 9.300781 0.34375 8.28125 0.34375 Z M 8.28125 0.34375 "/></g></g></g><g fill="#000000" fill-opacity="1"><g transform="translate(458.547034, 533.597348)"><g><path d="M 2.5 0 L 2.5 -17.265625 L 6.6875 -17.265625 L 6.6875 -15.265625 C 7.144531 -15.828125 7.660156 -16.28125 8.234375 -16.625 C 8.816406 -16.976562 9.410156 -17.234375 10.015625 -17.390625 C 10.628906 -17.554688 11.222656 -17.640625 11.796875 -17.640625 C 12.921875 -17.640625 13.878906 -17.429688 14.671875 -17.015625 C 15.472656 -16.609375 16.117188 -16.054688 16.609375 -15.359375 C 17.109375 -14.660156 17.472656 -13.878906 17.703125 -13.015625 C 17.929688 -12.148438 18.046875 -11.269531 18.046875 -10.375 L 18.046875 0 L 13.875 0 L 13.875 -9.84375 C 13.875 -10.601562 13.75 -11.273438 13.5 -11.859375 C 13.257812 -12.441406 12.894531 -12.898438 12.40625 -13.234375 C 11.914062 -13.578125 11.304688 -13.75 10.578125 -13.75 C 9.390625 -13.75 8.441406 -13.410156 7.734375 -12.734375 C 7.035156 -12.054688 6.6875 -10.960938 6.6875 -9.453125 L 6.6875 0 Z M 2.5 0 "/></g></g></g><g fill="#000000" fill-opacity="1"><g transform="translate(478.622023, 533.597348)"><g/></g></g><g fill="#000000" fill-opacity="1"><g transform="translate(487.129248, 533.597348)"><g><path d="M 10.125 0.28125 C 9.039062 0.28125 7.984375 0.128906 6.953125 -0.171875 C 5.921875 -0.472656 4.972656 -0.921875 4.109375 -1.515625 C 3.253906 -2.109375 2.535156 -2.851562 1.953125 -3.75 C 1.367188 -4.644531 0.976562 -5.691406 0.78125 -6.890625 L 5.140625 -8 C 5.242188 -6.988281 5.53125 -6.160156 6 -5.515625 C 6.476562 -4.867188 7.082031 -4.390625 7.8125 -4.078125 C 8.539062 -3.765625 9.335938 -3.609375 10.203125 -3.609375 C 11.078125 -3.609375 11.8125 -3.742188 12.40625 -4.015625 C 13 -4.296875 13.453125 -4.671875 13.765625 -5.140625 C 14.078125 -5.617188 14.234375 -6.144531 14.234375 -6.71875 C 14.234375 -7.351562 14.0625 -7.894531 13.71875 -8.34375 C 13.382812 -8.800781 12.9375 -9.191406 12.375 -9.515625 C 11.820312 -9.847656 11.191406 -10.15625 10.484375 -10.4375 C 9.785156 -10.71875 9.0625 -11.003906 8.3125 -11.296875 C 7.5625 -11.585938 6.832031 -11.921875 6.125 -12.296875 C 5.425781 -12.671875 4.796875 -13.113281 4.234375 -13.625 C 3.679688 -14.144531 3.238281 -14.765625 2.90625 -15.484375 C 2.570312 -16.203125 2.40625 -17.054688 2.40625 -18.046875 C 2.40625 -19.128906 2.601562 -20.085938 3 -20.921875 C 3.40625 -21.765625 3.960938 -22.472656 4.671875 -23.046875 C 5.378906 -23.617188 6.191406 -24.050781 7.109375 -24.34375 C 8.023438 -24.644531 9 -24.796875 10.03125 -24.796875 C 11.539062 -24.796875 12.945312 -24.453125 14.25 -23.765625 C 15.550781 -23.078125 16.625 -21.988281 17.46875 -20.5 L 13.8125 -18.28125 C 13.382812 -19.101562 12.820312 -19.742188 12.125 -20.203125 C 11.4375 -20.660156 10.6875 -20.890625 9.875 -20.890625 C 9.289062 -20.890625 8.765625 -20.78125 8.296875 -20.5625 C 7.835938 -20.34375 7.472656 -20.035156 7.203125 -19.640625 C 6.929688 -19.242188 6.796875 -18.789062 6.796875 -18.28125 C 6.796875 -17.695312 6.960938 -17.203125 7.296875 -16.796875 C 7.628906 -16.390625 8.070312 -16.03125 8.625 -15.71875 C 9.1875 -15.414062 9.816406 -15.128906 10.515625 -14.859375 C 11.222656 -14.585938 11.953125 -14.304688 12.703125 -14.015625 C 13.453125 -13.722656 14.175781 -13.382812 14.875 -13 C 15.582031 -12.625 16.210938 -12.171875 16.765625 -11.640625 C 17.328125 -11.117188 17.773438 -10.488281 18.109375 -9.75 C 18.453125 -9.007812 18.625 -8.132812 18.625 -7.125 C 18.625 -5.96875 18.398438 -4.929688 17.953125 -4.015625 C 17.503906 -3.097656 16.890625 -2.316406 16.109375 -1.671875 C 15.335938 -1.035156 14.4375 -0.550781 13.40625 -0.21875 C 12.382812 0.113281 11.289062 0.28125 10.125 0.28125 Z M 10.125 0.28125 "/></g></g></g><g fill="#000000" fill-opacity="1"><g transform="translate(506.789249, 533.597348)"><g><path d="M 9.734375 0.34375 C 8.398438 0.34375 7.191406 0.101562 6.109375 -0.375 C 5.023438 -0.851562 4.09375 -1.503906 3.3125 -2.328125 C 2.53125 -3.160156 1.925781 -4.117188 1.5 -5.203125 C 1.082031 -6.296875 0.875 -7.453125 0.875 -8.671875 C 0.875 -9.898438 1.082031 -11.050781 1.5 -12.125 C 1.925781 -13.207031 2.53125 -14.160156 3.3125 -14.984375 C 4.09375 -15.804688 5.023438 -16.453125 6.109375 -16.921875 C 7.191406 -17.398438 8.398438 -17.640625 9.734375 -17.640625 C 11.066406 -17.640625 12.273438 -17.398438 13.359375 -16.921875 C 14.441406 -16.453125 15.375 -15.804688 16.15625 -14.984375 C 16.9375 -14.160156 17.535156 -13.207031 17.953125 -12.125 C 18.367188 -11.050781 18.578125 -9.898438 18.578125 -8.671875 C 18.578125 -7.453125 18.367188 -6.296875 17.953125 -5.203125 C 17.535156 -4.117188 16.9375 -3.160156 16.15625 -2.328125 C 15.375 -1.503906 14.441406 -0.851562 13.359375 -0.375 C 12.273438 0.101562 11.066406 0.34375 9.734375 0.34375 Z M 9.734375 -3.28125 C 10.523438 -3.28125 11.207031 -3.425781 11.78125 -3.71875 C 12.351562 -4.019531 12.8125 -4.421875 13.15625 -4.921875 C 13.507812 -5.421875 13.769531 -5.992188 13.9375 -6.640625 C 14.101562 -7.296875 14.1875 -7.972656 14.1875 -8.671875 C 14.1875 -9.390625 14.101562 -10.066406 13.9375 -10.703125 C 13.769531 -11.335938 13.507812 -11.898438 13.15625 -12.390625 C 12.8125 -12.890625 12.351562 -13.28125 11.78125 -13.5625 C 11.207031 -13.84375 10.523438 -13.984375 9.734375 -13.984375 C 8.671875 -13.984375 7.8125 -13.738281 7.15625 -13.25 C 6.5 -12.757812 6.019531 -12.109375 5.71875 -11.296875 C 5.414062 -10.492188 5.265625 -9.617188 5.265625 -8.671875 C 5.265625 -7.972656 5.347656 -7.296875 5.515625 -6.640625 C 5.691406 -5.992188 5.957031 -5.421875 6.3125 -4.921875 C 6.664062 -4.421875 7.125 -4.019531 7.6875 -3.71875 C 8.257812 -3.425781 8.941406 -3.28125 9.734375 -3.28125 Z M 9.734375 -3.28125 "/></g></g></g><g fill="#000000" fill-opacity="1"><g transform="translate(526.293619, 533.597348)"><g><path d="M 9.359375 0.34375 C 7.953125 0.34375 6.722656 0.0976562 5.671875 -0.390625 C 4.617188 -0.890625 3.742188 -1.5625 3.046875 -2.40625 C 2.359375 -3.257812 1.84375 -4.21875 1.5 -5.28125 C 1.15625 -6.351562 0.984375 -7.460938 0.984375 -8.609375 C 0.984375 -9.734375 1.148438 -10.832031 1.484375 -11.90625 C 1.828125 -12.988281 2.34375 -13.957031 3.03125 -14.8125 C 3.71875 -15.675781 4.582031 -16.363281 5.625 -16.875 C 6.675781 -17.382812 7.90625 -17.640625 9.3125 -17.640625 C 11.03125 -17.640625 12.539062 -17.21875 13.84375 -16.375 C 15.144531 -15.53125 16.125 -14.25 16.78125 -12.53125 L 12.78125 -10.984375 C 12.5625 -11.804688 12.144531 -12.484375 11.53125 -13.015625 C 10.914062 -13.546875 10.175781 -13.8125 9.3125 -13.8125 C 8.59375 -13.8125 7.972656 -13.664062 7.453125 -13.375 C 6.941406 -13.082031 6.523438 -12.679688 6.203125 -12.171875 C 5.878906 -11.671875 5.640625 -11.113281 5.484375 -10.5 C 5.335938 -9.882812 5.265625 -9.253906 5.265625 -8.609375 C 5.265625 -7.953125 5.335938 -7.316406 5.484375 -6.703125 C 5.640625 -6.097656 5.875 -5.550781 6.1875 -5.0625 C 6.507812 -4.570312 6.925781 -4.179688 7.4375 -3.890625 C 7.957031 -3.609375 8.582031 -3.46875 9.3125 -3.46875 C 10.164062 -3.46875 10.898438 -3.722656 11.515625 -4.234375 C 12.140625 -4.753906 12.5625 -5.414062 12.78125 -6.21875 L 16.609375 -4.765625 C 16.234375 -3.691406 15.691406 -2.769531 14.984375 -2 C 14.285156 -1.238281 13.457031 -0.65625 12.5 -0.25 C 11.539062 0.144531 10.492188 0.34375 9.359375 0.34375 Z M 9.359375 0.34375 "/></g></g></g><g fill="#000000" fill-opacity="1"><g transform="translate(543.653891, 533.597348)"><g><path d="M 2.40625 -20.53125 L 2.40625 -24.421875 L 6.796875 -24.421875 L 6.796875 -20.53125 Z M 2.5 0 L 2.5 -17.265625 L 6.6875 -17.265625 L 6.6875 0 Z M 2.5 0 "/></g></g></g><g fill="#000000" fill-opacity="1"><g transform="translate(552.85276, 533.597348)"><g><path d="M 9.703125 0.34375 C 8.210938 0.34375 6.921875 0.101562 5.828125 -0.375 C 4.734375 -0.863281 3.820312 -1.523438 3.09375 -2.359375 C 2.363281 -3.203125 1.820312 -4.15625 1.46875 -5.21875 C 1.125 -6.289062 0.953125 -7.410156 0.953125 -8.578125 C 0.953125 -9.703125 1.117188 -10.800781 1.453125 -11.875 C 1.785156 -12.945312 2.296875 -13.914062 2.984375 -14.78125 C 3.679688 -15.65625 4.5625 -16.347656 5.625 -16.859375 C 6.6875 -17.378906 7.953125 -17.640625 9.421875 -17.640625 C 10.628906 -17.640625 11.679688 -17.460938 12.578125 -17.109375 C 13.472656 -16.753906 14.226562 -16.273438 14.84375 -15.671875 C 15.46875 -15.078125 15.96875 -14.398438 16.34375 -13.640625 C 16.726562 -12.890625 17.003906 -12.109375 17.171875 -11.296875 C 17.335938 -10.484375 17.421875 -9.691406 17.421875 -8.921875 C 17.421875 -8.566406 17.40625 -8.234375 17.375 -7.921875 C 17.351562 -7.609375 17.316406 -7.390625 17.265625 -7.265625 L 5.40625 -7.265625 C 5.53125 -6.515625 5.757812 -5.851562 6.09375 -5.28125 C 6.425781 -4.707031 6.890625 -4.257812 7.484375 -3.9375 C 8.085938 -3.625 8.835938 -3.46875 9.734375 -3.46875 C 10.515625 -3.46875 11.25 -3.609375 11.9375 -3.890625 C 12.632812 -4.171875 13.28125 -4.644531 13.875 -5.3125 L 16.78125 -2.765625 C 15.84375 -1.710938 14.789062 -0.929688 13.625 -0.421875 C 12.457031 0.0859375 11.148438 0.34375 9.703125 0.34375 Z M 5.40625 -10.296875 L 13.28125 -10.296875 C 13.132812 -11.535156 12.722656 -12.476562 12.046875 -13.125 C 11.367188 -13.769531 10.484375 -14.09375 9.390625 -14.09375 C 8.554688 -14.09375 7.867188 -13.925781 7.328125 -13.59375 C 6.796875 -13.269531 6.378906 -12.820312 6.078125 -12.25 C 5.773438 -11.675781 5.550781 -11.023438 5.40625 -10.296875 Z M 5.40625 -10.296875 "/></g></g></g><g fill="#000000" fill-opacity="1"><g transform="translate(571.302384, 533.597348)"><g><path d="M 8.640625 0.34375 C 7.515625 0.34375 6.546875 0.132812 5.734375 -0.28125 C 4.921875 -0.695312 4.296875 -1.285156 3.859375 -2.046875 C 3.429688 -2.816406 3.21875 -3.722656 3.21875 -4.765625 L 3.21875 -13.75 L 0.4375 -13.75 L 0.4375 -17.265625 L 3.28125 -17.265625 L 3.28125 -21.5625 L 7.40625 -24.5625 L 7.40625 -17.265625 L 11.75 -17.265625 L 11.75 -13.75 L 7.40625 -13.75 L 7.40625 -5.515625 C 7.40625 -4.679688 7.585938 -4.113281 7.953125 -3.8125 C 8.328125 -3.519531 8.796875 -3.375 9.359375 -3.375 C 9.796875 -3.375 10.234375 -3.441406 10.671875 -3.578125 C 11.109375 -3.710938 11.46875 -3.851562 11.75 -4 L 11.75 -0.171875 C 11.425781 -0.0546875 10.976562 0.0546875 10.40625 0.171875 C 9.832031 0.285156 9.242188 0.34375 8.640625 0.34375 Z M 8.640625 0.34375 "/></g></g></g><g fill="#000000" fill-opacity="1"><g transform="translate(584.339879, 533.597348)"><g><path d="M 3.46875 7.4375 L 6.65625 -0.46875 L -0.109375 -17.265625 L 4.53125 -17.265625 L 8.890625 -5.265625 L 13.3125 -17.265625 L 17.9375 -17.265625 L 8.078125 7.4375 Z M 3.46875 7.4375 "/></g></g></g><g fill="#000000" fill-opacity="1"><g transform="translate(602.184302, 533.597348)"><g/></g></g><g fill="#000000" fill-opacity="1"><g transform="translate(610.691527, 533.597348)"><g><path d="M 8 0 L 8 -20.5 L 0.34375 -20.5 L 0.34375 -24.421875 L 20.03125 -24.421875 L 20.03125 -20.5 L 12.390625 -20.5 L 12.390625 0 Z M 8 0 "/></g></g></g><g fill="#000000" fill-opacity="1"><g transform="translate(631.095034, 533.597348)"><g><path d="M 2.5 0 L 2.5 -17.265625 L 6.625 -17.265625 L 6.625 -14.359375 C 6.875 -15.066406 7.238281 -15.660156 7.71875 -16.140625 C 8.195312 -16.628906 8.742188 -17 9.359375 -17.25 C 9.972656 -17.507812 10.601562 -17.640625 11.25 -17.640625 C 11.832031 -17.640625 12.398438 -17.535156 12.953125 -17.328125 C 13.515625 -17.128906 14.003906 -16.816406 14.421875 -16.390625 L 12.5 -12.9375 C 11.914062 -13.320312 11.285156 -13.515625 10.609375 -13.515625 C 10.117188 -13.515625 9.632812 -13.394531 9.15625 -13.15625 C 8.675781 -12.925781 8.242188 -12.5625 7.859375 -12.0625 C 7.472656 -11.5625 7.164062 -10.914062 6.9375 -10.125 C 6.707031 -9.332031 6.59375 -8.390625 6.59375 -7.296875 L 6.59375 0 Z M 2.5 0 "/></g></g></g><g fill="#000000" fill-opacity="1"><g transform="translate(645.187299, 533.597348)"><g><path d="M 2.40625 -20.53125 L 2.40625 -24.421875 L 6.796875 -24.421875 L 6.796875 -20.53125 Z M 2.5 0 L 2.5 -17.265625 L 6.6875 -17.265625 L 6.6875 0 Z M 2.5 0 "/></g></g></g><g fill="#000000" fill-opacity="1"><g transform="translate(654.386168, 533.597348)"><g><path d="M 9.703125 0.34375 C 8.210938 0.34375 6.921875 0.101562 5.828125 -0.375 C 4.734375 -0.863281 3.820312 -1.523438 3.09375 -2.359375 C 2.363281 -3.203125 1.820312 -4.15625 1.46875 -5.21875 C 1.125 -6.289062 0.953125 -7.410156 0.953125 -8.578125 C 0.953125 -9.703125 1.117188 -10.800781 1.453125 -11.875 C 1.785156 -12.945312 2.296875 -13.914062 2.984375 -14.78125 C 3.679688 -15.65625 4.5625 -16.347656 5.625 -16.859375 C 6.6875 -17.378906 7.953125 -17.640625 9.421875 -17.640625 C 10.628906 -17.640625 11.679688 -17.460938 12.578125 -17.109375 C 13.472656 -16.753906 14.226562 -16.273438 14.84375 -15.671875 C 15.46875 -15.078125 15.96875 -14.398438 16.34375 -13.640625 C 16.726562 -12.890625 17.003906 -12.109375 17.171875 -11.296875 C 17.335938 -10.484375 17.421875 -9.691406 17.421875 -8.921875 C 17.421875 -8.566406 17.40625 -8.234375 17.375 -7.921875 C 17.351562 -7.609375 17.316406 -7.390625 17.265625 -7.265625 L 5.40625 -7.265625 C 5.53125 -6.515625 5.757812 -5.851562 6.09375 -5.28125 C 6.425781 -4.707031 6.890625 -4.257812 7.484375 -3.9375 C 8.085938 -3.625 8.835938 -3.46875 9.734375 -3.46875 C 10.515625 -3.46875 11.25 -3.609375 11.9375 -3.890625 C 12.632812 -4.171875 13.28125 -4.644531 13.875 -5.3125 L 16.78125 -2.765625 C 15.84375 -1.710938 14.789062 -0.929688 13.625 -0.421875 C 12.457031 0.0859375 11.148438 0.34375 9.703125 0.34375 Z M 5.40625 -10.296875 L 13.28125 -10.296875 C 13.132812 -11.535156 12.722656 -12.476562 12.046875 -13.125 C 11.367188 -13.769531 10.484375 -14.09375 9.390625 -14.09375 C 8.554688 -14.09375 7.867188 -13.925781 7.328125 -13.59375 C 6.796875 -13.269531 6.378906 -12.820312 6.078125 -12.25 C 5.773438 -11.675781 5.550781 -11.023438 5.40625 -10.296875 Z M 5.40625 -10.296875 "/></g></g></g><g fill="#000000" fill-opacity="1"><g transform="translate(672.835792, 533.597348)"><g><path d="M 7.703125 0.34375 C 6.492188 0.34375 5.394531 0.125 4.40625 -0.3125 C 3.414062 -0.75 2.582031 -1.332031 1.90625 -2.0625 C 1.238281 -2.789062 0.757812 -3.601562 0.46875 -4.5 L 3.828125 -5.984375 C 3.984375 -5.566406 4.195312 -5.140625 4.46875 -4.703125 C 4.75 -4.265625 5.132812 -3.894531 5.625 -3.59375 C 6.113281 -3.289062 6.738281 -3.140625 7.5 -3.140625 C 8.15625 -3.140625 8.6875 -3.242188 9.09375 -3.453125 C 9.507812 -3.671875 9.8125 -3.941406 10 -4.265625 C 10.195312 -4.585938 10.296875 -4.898438 10.296875 -5.203125 C 10.296875 -5.617188 10.140625 -5.945312 9.828125 -6.1875 C 9.523438 -6.4375 9.113281 -6.640625 8.59375 -6.796875 C 8.070312 -6.960938 7.503906 -7.117188 6.890625 -7.265625 C 6.273438 -7.421875 5.65625 -7.609375 5.03125 -7.828125 C 4.414062 -8.046875 3.847656 -8.332031 3.328125 -8.6875 C 2.816406 -9.050781 2.40625 -9.515625 2.09375 -10.078125 C 1.78125 -10.648438 1.625 -11.375 1.625 -12.25 C 1.625 -13.164062 1.796875 -13.957031 2.140625 -14.625 C 2.492188 -15.300781 2.972656 -15.863281 3.578125 -16.3125 C 4.179688 -16.757812 4.867188 -17.09375 5.640625 -17.3125 C 6.410156 -17.53125 7.207031 -17.640625 8.03125 -17.640625 C 9.519531 -17.640625 10.820312 -17.300781 11.9375 -16.625 C 13.050781 -15.957031 13.9375 -15.039062 14.59375 -13.875 L 11.328125 -12.109375 C 11.128906 -12.460938 10.878906 -12.804688 10.578125 -13.140625 C 10.285156 -13.472656 9.921875 -13.75 9.484375 -13.96875 C 9.046875 -14.1875 8.519531 -14.296875 7.90625 -14.296875 C 7.207031 -14.296875 6.660156 -14.148438 6.265625 -13.859375 C 5.867188 -13.566406 5.671875 -13.21875 5.671875 -12.8125 C 5.671875 -12.4375 5.828125 -12.132812 6.140625 -11.90625 C 6.460938 -11.675781 6.882812 -11.476562 7.40625 -11.3125 C 7.925781 -11.144531 8.5 -10.972656 9.125 -10.796875 C 9.75 -10.628906 10.367188 -10.414062 10.984375 -10.15625 C 11.609375 -9.90625 12.179688 -9.582031 12.703125 -9.1875 C 13.234375 -8.800781 13.65625 -8.300781 13.96875 -7.6875 C 14.289062 -7.082031 14.453125 -6.320312 14.453125 -5.40625 C 14.453125 -4.40625 14.253906 -3.546875 13.859375 -2.828125 C 13.472656 -2.109375 12.953125 -1.507812 12.296875 -1.03125 C 11.648438 -0.5625 10.925781 -0.21875 10.125 0 C 9.332031 0.226562 8.523438 0.34375 7.703125 0.34375 Z M 7.703125 0.34375 "/></g></g></g><g fill="#000000" fill-opacity="1"><g transform="translate(688.553422, 533.597348)"><g><path d="M 8.640625 0.34375 C 7.515625 0.34375 6.546875 0.132812 5.734375 -0.28125 C 4.921875 -0.695312 4.296875 -1.285156 3.859375 -2.046875 C 3.429688 -2.816406 3.21875 -3.722656 3.21875 -4.765625 L 3.21875 -13.75 L 0.4375 -13.75 L 0.4375 -17.265625 L 3.28125 -17.265625 L 3.28125 -21.5625 L 7.40625 -24.5625 L 7.40625 -17.265625 L 11.75 -17.265625 L 11.75 -13.75 L 7.40625 -13.75 L 7.40625 -5.515625 C 7.40625 -4.679688 7.585938 -4.113281 7.953125 -3.8125 C 8.328125 -3.519531 8.796875 -3.375 9.359375 -3.375 C 9.796875 -3.375 10.234375 -3.441406 10.671875 -3.578125 C 11.109375 -3.710938 11.46875 -3.851562 11.75 -4 L 11.75 -0.171875 C 11.425781 -0.0546875 10.976562 0.0546875 10.40625 0.171875 C 9.832031 0.285156 9.242188 0.34375 8.640625 0.34375 Z M 8.640625 0.34375 "/></g></g></g><g fill="#000000" fill-opacity="1"><g transform="translate(701.590917, 533.597348)"><g><path d="M 9.703125 0.34375 C 8.210938 0.34375 6.921875 0.101562 5.828125 -0.375 C 4.734375 -0.863281 3.820312 -1.523438 3.09375 -2.359375 C 2.363281 -3.203125 1.820312 -4.15625 1.46875 -5.21875 C 1.125 -6.289062 0.953125 -7.410156 0.953125 -8.578125 C 0.953125 -9.703125 1.117188 -10.800781 1.453125 -11.875 C 1.785156 -12.945312 2.296875 -13.914062 2.984375 -14.78125 C 3.679688 -15.65625 4.5625 -16.347656 5.625 -16.859375 C 6.6875 -17.378906 7.953125 -17.640625 9.421875 -17.640625 C 10.628906 -17.640625 11.679688 -17.460938 12.578125 -17.109375 C 13.472656 -16.753906 14.226562 -16.273438 14.84375 -15.671875 C 15.46875 -15.078125 15.96875 -14.398438 16.34375 -13.640625 C 16.726562 -12.890625 17.003906 -12.109375 17.171875 -11.296875 C 17.335938 -10.484375 17.421875 -9.691406 17.421875 -8.921875 C 17.421875 -8.566406 17.40625 -8.234375 17.375 -7.921875 C 17.351562 -7.609375 17.316406 -7.390625 17.265625 -7.265625 L 5.40625 -7.265625 C 5.53125 -6.515625 5.757812 -5.851562 6.09375 -5.28125 C 6.425781 -4.707031 6.890625 -4.257812 7.484375 -3.9375 C 8.085938 -3.625 8.835938 -3.46875 9.734375 -3.46875 C 10.515625 -3.46875 11.25 -3.609375 11.9375 -3.890625 C 12.632812 -4.171875 13.28125 -4.644531 13.875 -5.3125 L 16.78125 -2.765625 C 15.84375 -1.710938 14.789062 -0.929688 13.625 -0.421875 C 12.457031 0.0859375 11.148438 0.34375 9.703125 0.34375 Z M 5.40625 -10.296875 L 13.28125 -10.296875 C 13.132812 -11.535156 12.722656 -12.476562 12.046875 -13.125 C 11.367188 -13.769531 10.484375 -14.09375 9.390625 -14.09375 C 8.554688 -14.09375 7.867188 -13.925781 7.328125 -13.59375 C 6.796875 -13.269531 6.378906 -12.820312 6.078125 -12.25 C 5.773438 -11.675781 5.550781 -11.023438 5.40625 -10.296875 Z M 5.40625 -10.296875 "/></g></g></g><g fill="#f15a24" fill-opacity="1"><g transform="translate(418.06779, 560.275155)"><g><path d="M 5.90625 0.203125 C 5 0.203125 4.210938 0.0546875 3.546875 -0.234375 C 2.878906 -0.523438 2.320312 -0.925781 1.875 -1.4375 C 1.4375 -1.957031 1.109375 -2.539062 0.890625 -3.1875 C 0.679688 -3.832031 0.578125 -4.507812 0.578125 -5.21875 C 0.578125 -5.914062 0.675781 -6.585938 0.875 -7.234375 C 1.082031 -7.890625 1.394531 -8.484375 1.8125 -9.015625 C 2.238281 -9.546875 2.773438 -9.96875 3.421875 -10.28125 C 4.078125 -10.59375 4.851562 -10.75 5.75 -10.75 C 6.476562 -10.75 7.113281 -10.640625 7.65625 -10.421875 C 8.207031 -10.210938 8.671875 -9.925781 9.046875 -9.5625 C 9.429688 -9.195312 9.738281 -8.78125 9.96875 -8.3125 C 10.195312 -7.851562 10.363281 -7.375 10.46875 -6.875 C 10.570312 -6.382812 10.625 -5.90625 10.625 -5.4375 C 10.625 -5.21875 10.613281 -5.015625 10.59375 -4.828125 C 10.570312 -4.640625 10.550781 -4.503906 10.53125 -4.421875 L 3.296875 -4.421875 C 3.367188 -3.960938 3.503906 -3.5625 3.703125 -3.21875 C 3.910156 -2.875 4.195312 -2.601562 4.5625 -2.40625 C 4.925781 -2.21875 5.382812 -2.125 5.9375 -2.125 C 6.40625 -2.125 6.847656 -2.207031 7.265625 -2.375 C 7.691406 -2.539062 8.085938 -2.828125 8.453125 -3.234375 L 10.234375 -1.6875 C 9.648438 -1.050781 9.003906 -0.578125 8.296875 -0.265625 C 7.585938 0.046875 6.789062 0.203125 5.90625 0.203125 Z M 3.296875 -6.28125 L 8.09375 -6.28125 C 8.007812 -7.03125 7.757812 -7.601562 7.34375 -8 C 6.925781 -8.394531 6.382812 -8.59375 5.71875 -8.59375 C 5.21875 -8.59375 4.800781 -8.488281 4.46875 -8.28125 C 4.144531 -8.082031 3.890625 -7.804688 3.703125 -7.453125 C 3.515625 -7.109375 3.378906 -6.71875 3.296875 -6.28125 Z M 3.296875 -6.28125 "/></g></g></g><g fill="#f15a24" fill-opacity="1"><g transform="translate(429.308413, 560.275155)"><g><path d="M 4.703125 0.203125 C 3.960938 0.203125 3.289062 0.0703125 2.6875 -0.1875 C 2.082031 -0.457031 1.570312 -0.8125 1.15625 -1.25 C 0.75 -1.695312 0.457031 -2.191406 0.28125 -2.734375 L 2.328125 -3.640625 C 2.421875 -3.390625 2.550781 -3.128906 2.71875 -2.859375 C 2.894531 -2.597656 3.128906 -2.375 3.421875 -2.1875 C 3.722656 -2.007812 4.109375 -1.921875 4.578125 -1.921875 C 4.972656 -1.921875 5.296875 -1.984375 5.546875 -2.109375 C 5.796875 -2.242188 5.976562 -2.40625 6.09375 -2.59375 C 6.21875 -2.789062 6.28125 -2.984375 6.28125 -3.171875 C 6.28125 -3.421875 6.179688 -3.617188 5.984375 -3.765625 C 5.796875 -3.921875 5.546875 -4.046875 5.234375 -4.140625 C 4.921875 -4.242188 4.578125 -4.34375 4.203125 -4.4375 C 3.828125 -4.53125 3.445312 -4.640625 3.0625 -4.765625 C 2.6875 -4.898438 2.34375 -5.078125 2.03125 -5.296875 C 1.71875 -5.515625 1.460938 -5.796875 1.265625 -6.140625 C 1.078125 -6.492188 0.984375 -6.9375 0.984375 -7.46875 C 0.984375 -8.019531 1.09375 -8.5 1.3125 -8.90625 C 1.53125 -9.320312 1.820312 -9.664062 2.1875 -9.9375 C 2.550781 -10.207031 2.96875 -10.410156 3.4375 -10.546875 C 3.90625 -10.679688 4.394531 -10.75 4.90625 -10.75 C 5.8125 -10.75 6.601562 -10.546875 7.28125 -10.140625 C 7.957031 -9.734375 8.492188 -9.171875 8.890625 -8.453125 L 6.90625 -7.375 C 6.78125 -7.59375 6.628906 -7.800781 6.453125 -8 C 6.273438 -8.207031 6.050781 -8.378906 5.78125 -8.515625 C 5.519531 -8.648438 5.195312 -8.71875 4.8125 -8.71875 C 4.394531 -8.71875 4.0625 -8.625 3.8125 -8.4375 C 3.570312 -8.257812 3.453125 -8.050781 3.453125 -7.8125 C 3.453125 -7.582031 3.546875 -7.394531 3.734375 -7.25 C 3.929688 -7.113281 4.191406 -6.992188 4.515625 -6.890625 C 4.835938 -6.796875 5.1875 -6.691406 5.5625 -6.578125 C 5.9375 -6.472656 6.3125 -6.34375 6.6875 -6.1875 C 7.070312 -6.039062 7.425781 -5.847656 7.75 -5.609375 C 8.070312 -5.367188 8.328125 -5.0625 8.515625 -4.6875 C 8.710938 -4.3125 8.8125 -3.847656 8.8125 -3.296875 C 8.8125 -2.679688 8.691406 -2.15625 8.453125 -1.71875 C 8.210938 -1.28125 7.894531 -0.914062 7.5 -0.625 C 7.101562 -0.34375 6.660156 -0.132812 6.171875 0 C 5.691406 0.132812 5.203125 0.203125 4.703125 0.203125 Z M 4.703125 0.203125 "/></g></g></g><g fill="#f15a24" fill-opacity="1"><g transform="translate(438.884539, 560.275155)"><g><path d="M 5.265625 0.203125 C 4.578125 0.203125 3.984375 0.078125 3.484375 -0.171875 C 2.992188 -0.421875 2.613281 -0.78125 2.34375 -1.25 C 2.082031 -1.71875 1.953125 -2.269531 1.953125 -2.90625 L 1.953125 -8.375 L 0.265625 -8.375 L 0.265625 -10.53125 L 2 -10.53125 L 2 -13.140625 L 4.515625 -14.96875 L 4.515625 -10.53125 L 7.171875 -10.53125 L 7.171875 -8.375 L 4.515625 -8.375 L 4.515625 -3.359375 C 4.515625 -2.859375 4.625 -2.515625 4.84375 -2.328125 C 5.070312 -2.140625 5.359375 -2.046875 5.703125 -2.046875 C 5.960938 -2.046875 6.226562 -2.085938 6.5 -2.171875 C 6.769531 -2.265625 6.992188 -2.351562 7.171875 -2.4375 L 7.171875 -0.109375 C 6.972656 -0.0351562 6.695312 0.03125 6.34375 0.09375 C 5.988281 0.164062 5.628906 0.203125 5.265625 0.203125 Z M 5.265625 0.203125 "/></g></g></g><g fill="#f15a24" fill-opacity="1"><g transform="translate(446.827767, 560.275155)"><g/></g></g><g fill="#f15a24" fill-opacity="1"><g transform="translate(452.010881, 560.275155)"><g><path d="M 0.484375 0 L 0.484375 -2.125 C 0.492188 -2.132812 0.617188 -2.210938 0.859375 -2.359375 C 1.097656 -2.503906 1.410156 -2.703125 1.796875 -2.953125 C 2.179688 -3.210938 2.609375 -3.515625 3.078125 -3.859375 C 3.554688 -4.203125 4.046875 -4.578125 4.546875 -4.984375 C 5.046875 -5.398438 5.523438 -5.832031 5.984375 -6.28125 C 6.429688 -6.71875 6.832031 -7.164062 7.1875 -7.625 C 7.550781 -8.082031 7.835938 -8.550781 8.046875 -9.03125 C 8.253906 -9.519531 8.359375 -10.019531 8.359375 -10.53125 C 8.359375 -10.925781 8.285156 -11.285156 8.140625 -11.609375 C 7.992188 -11.941406 7.765625 -12.203125 7.453125 -12.390625 C 7.148438 -12.585938 6.753906 -12.6875 6.265625 -12.6875 C 5.785156 -12.6875 5.378906 -12.585938 5.046875 -12.390625 C 4.722656 -12.203125 4.460938 -11.953125 4.265625 -11.640625 C 4.066406 -11.328125 3.921875 -10.984375 3.828125 -10.609375 C 3.742188 -10.234375 3.691406 -9.851562 3.671875 -9.46875 L 1.0625 -9.640625 C 1.0625 -10.335938 1.175781 -11.007812 1.40625 -11.65625 C 1.644531 -12.3125 1.984375 -12.894531 2.421875 -13.40625 C 2.867188 -13.925781 3.410156 -14.335938 4.046875 -14.640625 C 4.691406 -14.941406 5.425781 -15.09375 6.25 -15.09375 C 6.9375 -15.09375 7.566406 -14.984375 8.140625 -14.765625 C 8.722656 -14.546875 9.234375 -14.238281 9.671875 -13.84375 C 10.109375 -13.445312 10.445312 -12.976562 10.6875 -12.4375 C 10.925781 -11.894531 11.046875 -11.3125 11.046875 -10.6875 C 11.046875 -10.101562 10.945312 -9.535156 10.75 -8.984375 C 10.5625 -8.429688 10.300781 -7.894531 9.96875 -7.375 C 9.644531 -6.863281 9.28125 -6.367188 8.875 -5.890625 C 8.46875 -5.421875 8.050781 -4.984375 7.625 -4.578125 C 7.125 -4.085938 6.628906 -3.65625 6.140625 -3.28125 C 5.660156 -2.914062 5.242188 -2.625 4.890625 -2.40625 L 11.765625 -2.40625 L 11.765625 0 Z M 0.484375 0 "/></g></g></g><g fill="#f15a24" fill-opacity="1"><g transform="translate(464.526204, 560.275155)"><g><path d="M 6.359375 0.203125 C 5.585938 0.203125 4.898438 0.09375 4.296875 -0.125 C 3.703125 -0.351562 3.179688 -0.664062 2.734375 -1.0625 C 2.285156 -1.46875 1.90625 -1.925781 1.59375 -2.4375 C 1.289062 -2.945312 1.039062 -3.488281 0.84375 -4.0625 C 0.65625 -4.632812 0.519531 -5.207031 0.4375 -5.78125 C 0.351562 -6.363281 0.3125 -6.921875 0.3125 -7.453125 C 0.3125 -7.972656 0.351562 -8.523438 0.4375 -9.109375 C 0.519531 -9.691406 0.648438 -10.269531 0.828125 -10.84375 C 1.015625 -11.414062 1.257812 -11.957031 1.5625 -12.46875 C 1.863281 -12.988281 2.234375 -13.445312 2.671875 -13.84375 C 3.109375 -14.238281 3.617188 -14.550781 4.203125 -14.78125 C 4.785156 -15.007812 5.453125 -15.125 6.203125 -15.125 C 7.023438 -15.125 7.757812 -14.976562 8.40625 -14.6875 C 9.050781 -14.394531 9.613281 -13.992188 10.09375 -13.484375 C 10.582031 -12.984375 10.984375 -12.398438 11.296875 -11.734375 C 11.609375 -11.078125 11.84375 -10.378906 12 -9.640625 C 12.15625 -8.910156 12.234375 -8.171875 12.234375 -7.421875 C 12.234375 -6.691406 12.15625 -5.957031 12 -5.21875 C 11.851562 -4.488281 11.625 -3.796875 11.3125 -3.140625 C 11.007812 -2.492188 10.617188 -1.914062 10.140625 -1.40625 C 9.671875 -0.90625 9.117188 -0.507812 8.484375 -0.21875 C 7.859375 0.0625 7.148438 0.203125 6.359375 0.203125 Z M 6.296875 -2.3125 C 6.742188 -2.3125 7.140625 -2.410156 7.484375 -2.609375 C 7.828125 -2.816406 8.125 -3.09375 8.375 -3.4375 C 8.625 -3.789062 8.828125 -4.191406 8.984375 -4.640625 C 9.148438 -5.085938 9.269531 -5.550781 9.34375 -6.03125 C 9.425781 -6.519531 9.46875 -7 9.46875 -7.46875 C 9.46875 -7.945312 9.425781 -8.425781 9.34375 -8.90625 C 9.269531 -9.394531 9.148438 -9.859375 8.984375 -10.296875 C 8.828125 -10.734375 8.617188 -11.117188 8.359375 -11.453125 C 8.097656 -11.796875 7.789062 -12.066406 7.4375 -12.265625 C 7.082031 -12.460938 6.671875 -12.5625 6.203125 -12.5625 C 5.742188 -12.5625 5.332031 -12.460938 4.96875 -12.265625 C 4.613281 -12.066406 4.304688 -11.796875 4.046875 -11.453125 C 3.796875 -11.109375 3.585938 -10.71875 3.421875 -10.28125 C 3.265625 -9.84375 3.144531 -9.378906 3.0625 -8.890625 C 2.988281 -8.410156 2.953125 -7.929688 2.953125 -7.453125 C 2.953125 -6.972656 2.988281 -6.488281 3.0625 -6 C 3.144531 -5.519531 3.265625 -5.054688 3.421875 -4.609375 C 3.585938 -4.171875 3.800781 -3.773438 4.0625 -3.421875 C 4.332031 -3.078125 4.648438 -2.804688 5.015625 -2.609375 C 5.378906 -2.410156 5.804688 -2.3125 6.296875 -2.3125 Z M 6.296875 -2.3125 "/></g></g></g><g fill="#f15a24" fill-opacity="1"><g transform="translate(477.041528, 560.275155)"><g><path d="M 0.484375 0 L 0.484375 -2.125 C 0.492188 -2.132812 0.617188 -2.210938 0.859375 -2.359375 C 1.097656 -2.503906 1.410156 -2.703125 1.796875 -2.953125 C 2.179688 -3.210938 2.609375 -3.515625 3.078125 -3.859375 C 3.554688 -4.203125 4.046875 -4.578125 4.546875 -4.984375 C 5.046875 -5.398438 5.523438 -5.832031 5.984375 -6.28125 C 6.429688 -6.71875 6.832031 -7.164062 7.1875 -7.625 C 7.550781 -8.082031 7.835938 -8.550781 8.046875 -9.03125 C 8.253906 -9.519531 8.359375 -10.019531 8.359375 -10.53125 C 8.359375 -10.925781 8.285156 -11.285156 8.140625 -11.609375 C 7.992188 -11.941406 7.765625 -12.203125 7.453125 -12.390625 C 7.148438 -12.585938 6.753906 -12.6875 6.265625 -12.6875 C 5.785156 -12.6875 5.378906 -12.585938 5.046875 -12.390625 C 4.722656 -12.203125 4.460938 -11.953125 4.265625 -11.640625 C 4.066406 -11.328125 3.921875 -10.984375 3.828125 -10.609375 C 3.742188 -10.234375 3.691406 -9.851562 3.671875 -9.46875 L 1.0625 -9.640625 C 1.0625 -10.335938 1.175781 -11.007812 1.40625 -11.65625 C 1.644531 -12.3125 1.984375 -12.894531 2.421875 -13.40625 C 2.867188 -13.925781 3.410156 -14.335938 4.046875 -14.640625 C 4.691406 -14.941406 5.425781 -15.09375 6.25 -15.09375 C 6.9375 -15.09375 7.566406 -14.984375 8.140625 -14.765625 C 8.722656 -14.546875 9.234375 -14.238281 9.671875 -13.84375 C 10.109375 -13.445312 10.445312 -12.976562 10.6875 -12.4375 C 10.925781 -11.894531 11.046875 -11.3125 11.046875 -10.6875 C 11.046875 -10.101562 10.945312 -9.535156 10.75 -8.984375 C 10.5625 -8.429688 10.300781 -7.894531 9.96875 -7.375 C 9.644531 -6.863281 9.28125 -6.367188 8.875 -5.890625 C 8.46875 -5.421875 8.050781 -4.984375 7.625 -4.578125 C 7.125 -4.085938 6.628906 -3.65625 6.140625 -3.28125 C 5.660156 -2.914062 5.242188 -2.625 4.890625 -2.40625 L 11.765625 -2.40625 L 11.765625 0 Z M 0.484375 0 "/></g></g></g><g fill="#f15a24" fill-opacity="1"><g transform="translate(489.556852, 560.275155)"><g><path d="M 6.96875 0 L 6.96875 -3.5 L 0.078125 -3.5 L 0.078125 -5.046875 L 7.359375 -14.890625 L 9.59375 -14.890625 L 9.59375 -5.9375 L 11.984375 -5.9375 L 11.984375 -3.5 L 9.59375 -3.5 L 9.59375 0 Z M 3.515625 -5.9375 L 6.96875 -5.9375 L 6.96875 -10.796875 Z M 3.515625 -5.9375 "/></g></g></g></svg>