<svg xmlns="http://www.w3.org/2000/svg" xmlns:xlink="http://www.w3.org/1999/xlink" width="1080" zoomAndPan="magnify" viewBox="0 0 810 809.999993" height="1080" preserveAspectRatio="xMidYMid meet" version="1.0"><defs><g/></defs><g fill="#000000" fill-opacity="1"><g transform="translate(254.019252, 441.808213)"><g><path d="M 14.0625 -193.390625 L 83.21875 -193.390625 C 101.8125 -193.390625 116.96875 -188.425781 128.6875 -178.5 C 140.414062 -168.582031 146.28125 -154.40625 146.28125 -135.96875 C 146.28125 -121.738281 142.722656 -109.816406 135.609375 -100.203125 C 128.503906 -90.597656 118.851562 -83.84375 106.65625 -79.9375 L 173.234375 0 L 117.21875 0 L 58.140625 -76.421875 L 58.140625 0 L 14.0625 0 Z M 58.140625 -107.59375 L 63.296875 -107.59375 C 67.359375 -107.59375 70.796875 -107.671875 73.609375 -107.828125 C 76.421875 -107.984375 79.625 -108.53125 83.21875 -109.46875 C 86.8125 -110.40625 89.703125 -111.734375 91.890625 -113.453125 C 94.078125 -115.171875 95.953125 -117.671875 97.515625 -120.953125 C 99.078125 -124.242188 99.859375 -128.234375 99.859375 -132.921875 C 99.859375 -137.609375 99.078125 -141.59375 97.515625 -144.875 C 95.953125 -148.15625 94.078125 -150.65625 91.890625 -152.375 C 89.703125 -154.09375 86.8125 -155.421875 83.21875 -156.359375 C 79.625 -157.296875 76.421875 -157.84375 73.609375 -158 C 70.796875 -158.15625 67.359375 -158.234375 63.296875 -158.234375 L 58.140625 -158.234375 Z M 58.140625 -107.59375 "/></g></g></g><g fill="#000000" fill-opacity="1"><g transform="translate(393.278503, 495.221452)"><g><path d="M 85.328125 -196.921875 C 95.796875 -196.921875 106.03125 -195.394531 116.03125 -192.34375 C 126.039062 -189.289062 133.46875 -186.28125 138.3125 -183.3125 L 145.34375 -178.625 L 127.53125 -143.46875 C 126.125 -144.40625 124.171875 -145.613281 121.671875 -147.09375 C 119.171875 -148.582031 114.476562 -150.578125 107.59375 -153.078125 C 100.71875 -155.578125 94.3125 -156.828125 88.375 -156.828125 C 81.03125 -156.828125 75.363281 -155.265625 71.375 -152.140625 C 67.394531 -149.015625 65.40625 -144.796875 65.40625 -139.484375 C 65.40625 -136.828125 66.34375 -134.363281 68.21875 -132.09375 C 70.09375 -129.832031 73.296875 -127.410156 77.828125 -124.828125 C 82.359375 -122.253906 86.34375 -120.179688 89.78125 -118.609375 C 93.21875 -117.046875 98.53125 -114.703125 105.71875 -111.578125 C 118.226562 -106.265625 128.894531 -99.035156 137.71875 -89.890625 C 146.550781 -80.753906 150.96875 -70.40625 150.96875 -58.84375 C 150.96875 -47.75 148.972656 -38.054688 144.984375 -29.765625 C 141.003906 -21.484375 135.535156 -15 128.578125 -10.3125 C 121.628906 -5.625 113.929688 -2.148438 105.484375 0.109375 C 97.046875 2.378906 87.90625 3.515625 78.0625 3.515625 C 69.625 3.515625 61.34375 2.65625 53.21875 0.9375 C 45.09375 -0.78125 38.289062 -2.925781 32.8125 -5.5 C 27.34375 -8.082031 22.421875 -10.625 18.046875 -13.125 C 13.671875 -15.625 10.46875 -17.734375 8.4375 -19.453125 L 5.390625 -22.03125 L 27.421875 -59.078125 C 29.296875 -57.515625 31.875 -55.519531 35.15625 -53.09375 C 38.445312 -50.675781 44.269531 -47.429688 52.625 -43.359375 C 60.988281 -39.296875 68.375 -37.265625 74.78125 -37.265625 C 93.375 -37.265625 102.671875 -43.597656 102.671875 -56.265625 C 102.671875 -58.921875 102.003906 -61.378906 100.671875 -63.640625 C 99.347656 -65.910156 97.003906 -68.175781 93.640625 -70.4375 C 90.285156 -72.707031 87.316406 -74.503906 84.734375 -75.828125 C 82.160156 -77.160156 77.941406 -79.191406 72.078125 -81.921875 C 66.222656 -84.660156 61.890625 -86.734375 59.078125 -88.140625 C 47.359375 -93.921875 38.289062 -101.148438 31.875 -109.828125 C 25.46875 -118.503906 22.265625 -127.84375 22.265625 -137.84375 C 22.265625 -155.1875 28.671875 -169.367188 41.484375 -180.390625 C 54.304688 -191.410156 68.921875 -196.921875 85.328125 -196.921875 Z M 85.328125 -196.921875 "/></g></g></g></svg>